<?xml version="1.0" standalone="no"?>
<!DOCTYPE svg PUBLIC "-//W3C//DTD SVG 1.1//EN" "http://www.w3.org/Graphics/SVG/1.1/DTD/svg11.dtd" >
<!--
2013-9-30: Created.
-->
<svg>
<metadata>
Created by iconfont
</metadata>
<defs>

<font id="hotel-icons" horiz-adv-x="1024" >
  <font-face
    font-family="hotel-icons"
    font-weight="500"
    font-stretch="normal"
    units-per-em="1024"
    ascent="896"
    descent="-128"
  />
    <missing-glyph />
    
    <glyph glyph-name="search" unicode="&#58891;" d="M889.132336 119.00872000000004C885.010459 123.13059699999997 751.58361 256.557446 677.598572 330.54248399999994c36.308951 50.146097 57.728796 111.777783 57.728796 178.420599 0 168.212096-136.362714 304.57481-304.57481 304.57481S126.177747 677.176203 126.177747 508.964106s136.362714-304.57481 304.57481-304.57481c70.178339 0 134.801149 23.74889 186.303126 63.629179 74.093509-74.093509 206.134801-206.134801 210.543204-210.543204 6.139837-6.139837 37.691437-17.045211 58.499345 3.762697C906.905118 82.04485399999999 894.845455 113.29560200000003 889.132336 119.00872000000004zM213.199707 508.964106c0 120.151497 97.402377 217.553874 217.552851 217.553874s217.552851-97.402377 217.552851-217.553874-97.402377-217.552851-217.552851-217.552851S213.199707 388.812609 213.199707 508.964106z"  horiz-adv-x="1024" />

    
    <glyph glyph-name="more" unicode="&#58898;" d="M896.663358 593.266118c0-16.954137-13.745049-30.699186-30.699186-30.699186L158.386822 562.566932c-16.954137 0-30.699186 13.745049-30.699186 30.699186l0 30.757514c0 16.954137 13.745049 30.699186 30.699186 30.699186l707.577351 0c16.954137 0 30.699186-13.745049 30.699186-30.699186L896.663358 593.266118zM896.663358 145.479605c0-16.954137-13.745049-30.699186-30.699186-30.699186L158.386822 114.78041900000005c-16.954137 0-30.699186 13.745049-30.699186 30.699186l0 30.758538c0 16.954137 13.745049 30.699186 30.699186 30.699186l707.577351 0c16.954137 0 30.699186-13.745049 30.699186-30.699186L896.663358 145.479605zM896.663358 366.066559c0-16.954137-13.745049-30.699186-30.699186-30.699186L158.386822 335.36737300000004c-16.954137 0-30.699186 13.745049-30.699186 30.699186l0 30.757514c0 16.954137 13.745049 30.699186 30.699186 30.699186l707.577351 0c16.954137 0 30.699186-13.745049 30.699186-30.699186L896.663358 366.066559z"  horiz-adv-x="1024" />

    
    <glyph glyph-name="toTop" unicode="&#58963;" d="M764.326842 436.649104c-7.992021-7.992021-20.947078-7.992021-28.949332 0l-187.776687 187.78692 0-603.904153c0-11.2973-9.15859-20.466124-20.466124-20.466124s-20.466124 9.168824-20.466124 20.466124l0 603.904153-187.78692-187.797154c-3.990894-3.990894-9.230222-5.986341-14.46955-5.986341s-10.468422 1.995447-14.46955 5.986341c-7.992021 8.002254-7.992021 20.957311 0 28.949332l222.722594 222.722594c3.837398 3.837398 9.046027 5.996574 14.46955 5.996574 5.433756 0 10.642384-2.159176 14.479783-5.996574l222.712361-222.712361C772.318864 457.606415 772.318864 444.651358 764.326842 436.649104zM842.875826 745.615944c0-11.2973-9.15859-20.466124-20.466124-20.466124l-590.550007 0c-11.307533 0-20.466124 9.168824-20.466124 20.466124 0 11.307533 9.15859 20.466124 20.466124 20.466124l590.550007 0C833.717236 766.0820679999999 842.875826 756.9234779999999 842.875826 745.615944z"  horiz-adv-x="1024" />

    
    <glyph glyph-name="closecircled" unicode="&#58902;" d="M512 746C264.6 746 64 545.4 64 298c0-247.4 200.6-448 448-448 247.4 0 448 200.6 448 448C960 545.4 759.4 746 512 746zM728.6 147c3-3 4.6-7 4.6-11.2 0-4.2-1.6-8.4-4.6-11.2l-43.2-43.4c-3.2-3.2-7.2-4.6-11.2-4.6-4 0-8.2 1.6-11.2 4.6L512 232.4l-150.8-151.4c-3-3.2-7.2-4.6-11.2-4.6-4 0-8.2 1.6-11.2 4.6l-43.2 43.4c-3 3-4.6 7-4.6 11.2 0 4.2 1.6 8.4 4.6 11.2l151.4 152-151.8 150c-6.2 6.2-6.2 16.4 0 22.6l43.2 43.4c3 3 7 4.6 11.2 4.6 4.2 0 8.2-1.6 11.2-4.6l151.4-149.4 151.4 149.4c3 3 7 4.6 11.2 4.6 4.2 0 8.2-1.6 11.2-4.6l43.2-43.4c6.2-6.2 6.2-16.4 0-22.6l-151.8-150L728.6 147z"  horiz-adv-x="1024" />

    
    <glyph glyph-name="target" unicode="&#59282;" d="M511.6 526.9c-79 0-143.5-64.5-143.5-143.5s64.5-143.5 143.5-143.5 143.5 64.5 143.5 143.5c0 79-64.5 143.5-143.5 143.5v0zM832.8 419c-17.1 150-135.6 268.5-285.6 285.6v73.8h-72.4v-73.8c-148.8-17.1-267.3-135.6-284.4-285.7h-73.8v-72.4h73.8c17.2-150 135.6-268.5 285.7-285.7v-72.4h72.4v73.8c150 17.2 268.5 135.7 285.6 285.7h72.4v72.4h-73.8l0.1-1.3zM511.6 131.9c-139.5 0-251.5 111.9-251.5 251.5s111.9 251.5 251.5 251.5 251.5-111.9 251.5-251.5-112-251.5-251.5-251.5v0z"  horiz-adv-x="1024" />

    
    <glyph glyph-name="back" unicode="&#59077;" d="M937.304476 383.56509500000004c0 13.766538-11.393491 24.926716-24.948205 24.926716L247.758804 408.491811l314.845735 293.584502c10.157337 9.470699 10.226922 24.759917-0.00614 34.302247l-25.648147 23.913643c-10.160407 9.473769-26.677593 9.365298-36.489052 0.138146L84.647889 369.359558l415.813311-397.392776c9.991562-9.549493 26.25599-9.351995 36.152385 0.274246l26.319435 25.596981c9.975189 9.700943 9.82374 25.299199-0.330528 34.833343L247.758804 328.320886l664.597467 0c13.778818 0 24.948205 11.147898 24.948205 24.926716L937.304476 383.56509500000004 937.304476 383.56509500000004z"  horiz-adv-x="1024" />

    
    <glyph glyph-name="district" unicode="&#58994;" d="M584.533333 768c-19.2-32-29.866667-68.266667-29.866666-108.8 0-59.733333 25.6-123.733333 68.266666-187.733333l-179.2-179.2-183.466666 183.466666L554.666667 768h29.866666zM896 420.266667V64c0-36.266667-27.733333-64-64-64h-93.866667L490.666667 247.46666700000003l170.666666 170.666666c17.066667-21.333333 36.266667-44.8 55.466667-66.133333 19.2-23.466667 32-32 61.866667-32 27.733333 0 40.533333 8.533333 61.866666 32 19.2 21.333333 38.4 44.8 55.466667 68.266667zM128 341.33333300000004l89.6 89.6 183.466667-183.466666L160 8.53333299999997C140.8 19.200000000000045 128 40.53333299999997 128 64V341.33333300000004z m0 91.733334V704c0 36.266667 27.733333 64 64 64h270.933333L128 433.066667zM648.533333 0h-405.333333l202.666667 202.666667 202.666666-202.666667zM618.666667 659.2C618.666667 742.4 691.2 810.666667 778.666667 810.666667S938.666667 742.4 938.666667 659.2c0-93.866667-108.8-221.866667-147.2-264.533333-8.533333-8.533333-10.666667-10.666667-12.8-10.666667s-4.266667 2.133333-12.8 10.666667c-38.4 42.666667-147.2 172.8-147.2 264.533333z m160-61.866667c32 0 57.6 25.6 57.6 57.6S810.666667 710.4 778.666667 710.4s-57.6-25.6-57.6-57.6S746.666667 597.333333 778.666667 597.333333z"  horiz-adv-x="1024" />

    
    <glyph glyph-name="checkbox-checked" unicode="&#58995;" d="M810.666667 768H213.333333c-47.146667 0-85.333333-38.186667-85.333333-85.333333v-597.333334c0-47.146667 38.186667-85.333333 85.333333-85.333333h597.333334c47.146667 0 85.333333 38.186667 85.333333 85.333333V682.666667c0 47.146667-38.186667 85.333333-85.333333 85.333333zM426.666667 170.66666699999996L213.333333 384l60.373334 60.373333L426.666667 291.41333299999997l323.626666 323.626667L810.666667 554.666667 426.666667 170.66666699999996z"  horiz-adv-x="1024" />

    
    <glyph glyph-name="add-person" unicode="&#58996;" d="M512 644.266667c49.066667 0 89.6-40.533333 89.6-89.6s-40.533333-89.6-89.6-89.6-89.6 40.533333-89.6 89.6 40.533333 89.6 89.6 89.6m0-384c128 0 260.266667-61.866667 260.266667-89.6v-46.933334H251.733333V170.66666699999996c0 27.733333 134.4 89.6 260.266667 89.6M512 725.333333c-93.866667 0-170.666667-76.8-170.666667-170.666666s76.8-170.666667 170.666667-170.666667 170.666667 76.8 170.666667 170.666667-76.8 170.666667-170.666667 170.666666z m0-384c-113.066667 0-341.333333-57.6-341.333333-170.666666v-128h682.666666v128c0 113.066667-228.266667 170.666667-341.333333 170.666666zM908.8 441.6h-85.333333v85.333333h-42.666667v-85.333333h-85.333333v-42.666667h85.333333v-85.333333h42.666667v85.333333h85.333333z"  horiz-adv-x="1024" />

    
    <glyph glyph-name="download" unicode="&#58998;" d="M810.666667 512h-170.666667V768H384v-256h-170.666667l298.666667-298.666667 298.666667 298.666667zM213.333333 128v-85.333333h597.333334v85.333333H213.333333z"  horiz-adv-x="1024" />

    
    <glyph glyph-name="ic_check_box_outline_blank_px" unicode="&#58999;" d="M810.666667 682.666667v-597.333334H213.333333V682.666667h597.333334m0 85.333333H213.333333c-47.146667 0-85.333333-38.186667-85.333333-85.333333v-597.333334c0-47.146667 38.186667-85.333333 85.333333-85.333333h597.333334c47.146667 0 85.333333 38.186667 85.333333 85.333333V682.666667c0 47.146667-38.186667 85.333333-85.333333 85.333333z"  horiz-adv-x="1024" />

    
    <glyph glyph-name="ic_star_px" unicode="&#59001;" d="M512 138.666667L776.533333-21.333333l-70.4 300.8L938.666667 480l-307.2 25.6L512 789.333333l-119.466667-283.733333L85.333333 480 317.866667 277.333333l-70.4-298.666666L512 138.666667z"  horiz-adv-x="1024" />

    
    <glyph glyph-name="landmark" unicode="&#59002;" d="M240 416v-371.2c0-12.8 6.4-19.2 19.2-19.2h51.2c6.4 0 12.8 3.2 16 9.6 3.2 3.2 3.2 9.6 3.2 16V656v9.6c0 9.6 6.4 16 19.2 16h9.6c22.4 0 25.6-3.2 25.6-25.6v-288c3.2-16 19.2-25.6 35.2-19.2 176 70.4 348.8 137.6 524.8 208 9.6 3.2 16 12.8 16 22.4 0 9.6-6.4 19.2-16 22.4-3.2 0-6.4 3.2-9.6 3.2C716.8 691.2 502.4 777.6 284.8 864c-25.6 9.6-41.6 0-41.6-25.6V416h-3.2zM384 28.799999999999955v-6.4c0-25.6-41.6-48-96-48s-96 22.4-96 48v6.4c-57.6-9.6-96-32-96-54.4 0-35.2 86.4-60.8 192-60.8s192 28.8 192 60.8c0 22.4-38.4 44.8-96 54.4z"  horiz-adv-x="1024" />

    
    <glyph glyph-name="map" unicode="&#59003;" d="M293.306533 612.984925L0 448.836181v-445.620101c61.234171 31.903518 656.080402 350.424121 656.080402 350.424121L293.306533 612.984925z m413.716583-227.441206L1683.682412 896H815.083417l-457.969849-251.626131 349.909548-258.83015zM0 896v-367.919598L690.042211 896H0z m2578.01005-421.949749l858.822111-602.050251h31.388945V847.630151L2578.01005 474.050251zM1312.160804 633.567839L0-65.736683V-128h1093.467337L1831.879397 263.075377 1312.160804 633.567839zM3448.152764 896H1965.153769L2511.115578 515.21608 3448.152764 896zM1822.617085 896L1379.055276 659.296482l1121.768845-787.296482h832.578894c-252.140704 174.440201-1337.374874 927.260302-1476.824121 1024h-33.961809zM1201.013065-128h1191.236181L1878.190955 232.201005l-677.17789-360.201005z"  horiz-adv-x="3468" />

    
    <glyph glyph-name="nearby" unicode="&#59004;" d="M853.333333 106.66666699999996H170.666667v-42.666667c0-12.8-8.533333-21.333333-21.333334-21.333333H106.666667c-12.8 0-21.333333 8.533333-21.333334 21.333333v106.666667c0 12.8 8.533333 21.333333 21.333334 21.333333h810.666666c12.8 0 21.333333-8.533333 21.333334-21.333333v-106.666667c0-12.8-8.533333-21.333333-21.333334-21.333333h-42.666666c-12.8 0-21.333333 8.533333-21.333334 21.333333v42.666667z m85.333334 160V234.66666699999996H85.333333s0 10.666667 2.133334 32c0 59.733333 29.866667 81.066667 93.866666 128 51.2 40.533333 104.533333 93.866667 192 93.866666h260.266667c106.666667 0 155.733333-55.466667 209.066667-102.4 55.466667-49.066667 96-70.4 96-119.466666zM789.333333 469.333333v42.666667c0 12.8-8.533333 21.333333-21.333333 21.333333H256c-12.8 0-21.333333-8.533333-21.333333-21.333333v-42.666667H170.666667c-12.8 0-21.333333 8.533333-21.333334 21.333334v170.666666c0 10.666667 0 64 85.333334 64h554.666666c70.4 2.133333 85.333333-46.933333 85.333334-64v-170.666666c-2.133333-12.8-12.8-21.333333-21.333334-21.333334h-64z"  horiz-adv-x="1024" />

    
    <glyph glyph-name="child" unicode="&#59005;" d="M512 586.666667c61.866667 0 113.066667 49.066667 113.066667 113.066666S573.866667 810.666667 512 810.666667s-113.066667-49.066667-113.066667-113.066667 51.2-110.933333 113.066667-110.933333z m224-134.4c27.733333 8.533333 66.133333 44.8 89.6 68.266666 32 29.866667 44.8 66.133333 23.466667 89.6-32 32-89.6-23.466667-89.6-23.466666s-38.4-44.8-89.6-44.8H332.8s-36.266667 8.533333-68.266667 44.8c-23.466667 27.733333-61.866667 46.933333-89.6 23.466666-29.866667-27.733333 0-68.266667 0-68.266666s40.533333-44.8 68.266667-68.266667c19.2-19.2 42.666667-17.066667 157.866667-44.8v-426.666667s-6.4-44.8 44.8-44.8 44.8 44.8 44.8 44.8v179.2h44.8v-44.8s81.066667-115.2 113.066666-157.866666c17.066667-25.6 98.133333 8.533333 89.6 44.8-6.4 25.6-113.066667 157.866667-113.066666 157.866666V428.8s74.666667 10.666667 110.933333 23.466667z"  horiz-adv-x="1024" />

    
    <glyph glyph-name="filter" unicode="&#59006;" d="M906.666667 789.333333h-789.333334c-21.333333-8.533333-4.266667-29.866667-4.266666-29.866666l330.666666-398.933334v-337.066666c0-44.8 42.666667-44.8 42.666667-44.8l91.733333 89.6V360.53333299999997S896 738.133333 910.933333 761.6c14.933333 21.333333-4.266667 27.733333-4.266666 27.733333z"  horiz-adv-x="1024" />

    
    <glyph glyph-name="common-flight" unicode="&#59007;" d="M885.333333 757.333333c-25.6 25.6-89.6 0-115.2-25.6 0 0-68.266667-70.4-149.333333-149.333333l-394.666667 85.333333c-25.6 6.4-53.333333 8.533333-68.266666-6.4l-21.333334-21.333333c-14.933333-14.933333-6.4-25.6 21.333334-40.533333l328.533333-153.6c-55.466667-57.6-100.266667-100.266667-106.666667-106.666667-38.4-38.4-55.466667-51.2-70.4-83.2l-104.533333 36.266667c-10.666667 2.133333-21.333333 2.133333-27.733333-4.266667L145.066667 256c-6.4-6.4-2.133333-10.666667 8.533333-14.933333L277.333333 170.66666699999996c0-12.8 4.266667-17.066667 4.266667-17.066667s4.266667-4.266667 17.066667-4.266667l64-121.6c4.266667-10.666667 8.533333-12.8 14.933333-6.4l32 32c6.4 6.4 6.4 17.066667 6.4 25.6L384 177.06666700000005c32 14.933333 49.066667 32 87.466667 70.4l106.666666 106.666666L725.333333 27.733333000000016c14.933333-27.733333 23.466667-36.266667 40.533334-21.333333l21.333333 21.333333c14.933333 14.933333 12.8 42.666667 6.4 68.266667l-83.2 392.533333 151.466667 151.466667c23.466667 25.6 49.066667 91.733333 23.466666 117.333333z"  horiz-adv-x="1024" />

    
    <glyph glyph-name="get-directions-button" unicode="&#59008;" d="M925.866667 413.866667l-384 384c-17.066667 17.066667-42.666667 17.066667-59.733334 0l-384-384c-17.066667-17.066667-17.066667-42.666667 0-59.733334l384-384c17.066667-17.066667 42.666667-17.066667 59.733334 0l384 384c17.066667 17.066667 17.066667 42.666667 0 59.733334zM597.333333 277.333333v106.666667h-170.666666v-128h-85.333334v170.666667c0 25.6 17.066667 42.666667 42.666667 42.666666h213.333333v106.666667l149.333334-149.333333-149.333334-149.333334z"  horiz-adv-x="1024" />

    
    <glyph glyph-name="fly" unicode="&#59009;" d="M883.2 552.5333330000001c-57.6 25.6-326.4-121.6-326.4-121.6l-283.733333 93.866667s-64 10.666667-85.333334-27.733333l185.6-134.4-113.066666-53.333334-128 27.733334s-51.2 10.666667-42.666667-27.733334l142.933333-106.666666s27.733333-23.466667 85.333334 0 597.333333 268.8 597.333333 268.8 72.533333 38.4-32 81.066666z"  horiz-adv-x="1024" />

    
    <glyph glyph-name="baby" unicode="&#59011;" d="M625.066667 433.066667c-12.8 29.866667-44.8 49.066667-85.333334 49.066666H341.333333c-106.666667 0-196.266667-125.866667-74.666666-245.333333 0-2.133333 0-4.266667-2.133334-4.266667H174.933333S128 232.53333299999997 128 162.133333c2.133333-44.8 38.4-53.333333 44.8-53.333333h183.466667s46.933333 0 49.066666 55.466667v2.133333 51.2c0 6.4 4.266667 12.8 10.666667 12.8h142.933333c2.133333 0 4.266667-2.133333 4.266667-4.266667L597.333333 149.33333300000004c12.8-32 38.4-55.466667 78.933334-40.533333 38.4 14.933333 40.533333 44.8 34.133333 66.133333l-85.333333 258.133334zM763.733333 529.066667m-132.266666 0a132.266667 132.266667 0 1 1 264.533333 0 132.266667 132.266667 0 1 1-264.533333 0Z"  horiz-adv-x="1024" />

    
    <glyph glyph-name="cancel" unicode="&#59012;" d="M512 810.666667C276.266667 810.666667 85.333333 619.733333 85.333333 384s190.933333-426.666667 426.666667-426.666667 426.666667 190.933333 426.666667 426.666667S747.733333 810.666667 512 810.666667z m213.333333-579.626667L664.96 170.66666699999996 512 323.626667 359.04 170.66666699999996 298.666667 231.03999999999996 451.626667 384 298.666667 536.96 359.04 597.333333 512 444.373333 664.96 597.333333 725.333333 536.96 572.373333 384 725.333333 231.03999999999996z"  horiz-adv-x="1024" />

    
    <glyph glyph-name="remove" unicode="&#59013;" d="M923.733333 398.933333c0-23.466667-19.2-40.533333-40.533333-40.533333H140.8c-23.466667 0-40.533333 19.2-40.533333 40.533333 0 23.466667 19.2 40.533333 40.533333 40.533334h740.266667c23.466667 0 42.666667-17.066667 42.666666-40.533334z"  horiz-adv-x="1024" />

    
    <glyph glyph-name="add" unicode="&#59014;" d="M552.533333 439.466667h328.533334c23.466667 0 40.533333-19.2 40.533333-40.533334 0-23.466667-19.2-40.533333-40.533333-40.533333H552.533333v-328.533333c0-23.466667-19.2-40.533333-40.533333-40.533334-23.466667 0-40.533333 19.2-40.533333 40.533334V358.4H140.8c-23.466667 0-40.533333 19.2-40.533333 40.533333 0 23.466667 19.2 40.533333 40.533333 40.533334H469.333333V770.133333c2.133333 21.333333 19.2 40.533333 42.666667 40.533334s40.533333-19.2 40.533333-40.533334v-330.666666z"  horiz-adv-x="1024" />

    
    <glyph glyph-name="ic_my_location_px" unicode="&#59015;" d="M512 554.666667c-94.293333 0-170.666667-76.373333-170.666667-170.666667s76.373333-170.666667 170.666667-170.666667 170.666667 76.373333 170.666667 170.666667-76.373333 170.666667-170.666667 170.666667z m381.44-128C873.813333 604.586667 732.586667 745.813333 554.666667 765.44V853.333333h-85.333334v-87.893333C291.413333 745.813333 150.186667 604.586667 130.56 426.666667H42.666667v-85.333334h87.893333c19.626667-177.92 160.853333-319.146667 338.773333-338.773333V-85.333333h85.333334v87.893333c177.92 19.626667 319.146667 160.853333 338.773333 338.773333H981.333333v85.333334h-87.893333zM512 85.333333c-164.906667 0-298.666667 133.76-298.666667 298.666667s133.76 298.666667 298.666667 298.666667 298.666667-133.76 298.666667-298.666667-133.76-298.666667-298.666667-298.666667z"  horiz-adv-x="1024" />

    
    <glyph glyph-name="navigation" unicode="&#59016;" d="M512 810.666667L192 30.08000000000004 222.08 0 512 128l289.92-128L832 30.08000000000004z"  horiz-adv-x="1024" />

    
    <glyph glyph-name="ic_get_app_px" unicode="&#59017;" d="M810.666667 512h-170.666667V768H384v-256h-170.666667l298.666667-298.666667 298.666667 298.666667zM213.333333 128v-85.333333h597.333334v85.333333H213.333333z"  horiz-adv-x="1024" />

    
    <glyph glyph-name="picture" unicode="&#59018;" d="M746.666667 362.66666699999996c-49.066667 19.2-106.666667-40.533333-149.333334-64 0 0-100.266667 170.666667-213.333333 170.666666-83.2 0-181.333333-138.666667-317.866667-381.866666 0 0-10.666667-19.2 23.466667-23.466667h846.933333s25.6 4.266667 23.466667 23.466667S866.133333 315.733333 746.666667 362.66666699999996z m32 125.866666c59.733333 0 108.8 49.066667 108.8 108.8s-49.066667 106.666667-108.8 106.666667-108.8-49.066667-108.8-108.8 49.066667-106.666667 108.8-106.666667z"  horiz-adv-x="1024" />

    
    <glyph glyph-name="star_outline" unicode="&#59019;" d="M938.666667 480l-307.2 25.6L512 789.333333l-119.466667-283.733333L85.333333 480 317.866667 277.333333l-70.4-298.666666L512 138.666667 776.533333-21.333333l-70.4 300.8L938.666667 480zM512 217.6l-160-96 42.666667 183.466667-142.933334 121.6 187.733334 17.066666 72.533333 172.8 72.533333-172.8 187.733334-17.066666-140.8-123.733334 42.666666-183.466666-162.133333 98.133333z"  horiz-adv-x="1024" />

    
    <glyph glyph-name="star" unicode="&#59020;" d="M938.666667 480l-307.2 25.6L512 789.333333l-119.466667-283.733333L85.333333 480l232.533334-200.533333L247.466667-21.333333 512 138.666667 776.533333-21.333333l-70.4 300.8z"  horiz-adv-x="1024" />

    
    <glyph glyph-name="metro" unicode="&#59021;" d="M384 682.666667c0 12.8 8.533333 21.333333 21.333333 21.333333h213.333334c12.8 0 21.333333-8.533333 21.333333-21.333333h21.333333c83.2 0 149.333333-66.133333 149.333334-149.333334v-405.333333c0-36.266667-27.733333-64-64-64H277.333333c-36.266667 0-64 27.733333-64 64V533.333333c0 83.2 66.133333 149.333333 149.333334 149.333334h21.333333z m-64-640h384l59.733333-44.8c4.266667-4.266667 6.4-10.666667 2.133334-14.933334-2.133333-2.133333-4.266667-4.266667-8.533334-4.266666h-490.666666c-6.4 0-10.666667 4.266667-10.666667 10.666666 0 4.266667 2.133333 6.4 4.266667 8.533334L320 42.66666699999996z m-170.666667-85.333334H85.333333V565.333333C85.333333 701.866667 194.133333 810.666667 330.666667 810.666667h362.666666C829.866667 810.666667 938.666667 701.866667 938.666667 565.333333V-42.66666699999996h-64V565.333333c0 100.266667-81.066667 181.333333-181.333334 181.333334h-362.666666C230.4 746.666667 149.333333 665.6 149.333333 565.333333V-42.66666699999996z m192 640c-36.266667 0-64-27.733333-64-64v-128c0-36.266667 27.733333-64 64-64h341.333334c36.266667 0 64 27.733333 64 64v128c0 36.266667-27.733333 64-64 64H341.333333z m341.333334-448c36.266667 0 64 27.733333 64 64s-27.733333 64-64 64-64-27.733333-64-64 27.733333-64 64-64z m-341.333334 0c36.266667 0 64 27.733333 64 64s-27.733333 64-64 64-64-27.733333-64-64 27.733333-64 64-64z"  horiz-adv-x="1024" />

    
    <glyph glyph-name="comment" unicode="&#59022;" d="M832 746.666667H192c-46.933333 0-85.333333-38.4-85.333333-85.333334v-448c0-46.933333 38.4-85.333333 85.333333-85.333333h196.266667l128-128 128 128H832c46.933333 0 85.333333 38.4 85.333333 85.333333V661.333333c0 46.933333-38.4 85.333333-85.333333 85.333334z m-170.666667-448H256v42.666666h405.333333v-42.666666z m64 128H256v42.666666h469.333333v-42.666666z m64 128H256v42.666666h533.333333v-42.666666z"  horiz-adv-x="1024" />

    
    <glyph glyph-name="businessman" unicode="&#59024;" d="M657.066667 539.733333c78.933333 0 140.8 70.4 140.8 155.733334s-64 155.733333-140.8 155.733333-140.8-70.4-140.8-155.733333c-2.133333-85.333333 61.866667-155.733333 140.8-155.733334zM810.666667 228.26666699999998V456.533333c0 66.133333-76.8 70.4-76.8 70.4-83.2-66.133333-166.4 0-166.4 0-66.133333 0-76.8-70.4-76.8-70.4v-228.266666c0-68.266667 51.2-70.4 51.2-70.4v-198.4c0-49.066667 38.4-42.666667 38.4-42.666667h153.6c25.6 0 25.6 42.666667 25.6 42.666667v198.4c64-2.133333 51.2 70.4 51.2 70.4z m-138.666667 249.6v-44.8h-46.933333v44.8h46.933333z m-21.333333-281.6l-46.933334 46.933333 23.466667 164.266667h46.933333l23.466667-164.266667-46.933333-46.933333z m-192 0V320h-108.8s-25.6-6.4-27.733334-27.733333v-40.533334H256s-40.533333 0-40.533333-40.533333v-183.466667S213.333333-21.33333300000004 256-21.33333300000004h256v164.266666s-53.333333 4.266667-53.333333 53.333334z m-27.733334 55.466666h-81.066666v27.733334h81.066666v-27.733334z"  horiz-adv-x="1024" />

    
    <glyph glyph-name="city" unicode="&#59025;" d="M204.8 98.133333v362.666667c0 27.733333 23.466667 51.2 51.2 51.2h228.266667c27.733333 0 51.2-23.466667 51.2-51.2v-362.666667h25.6V488.533333c0 27.733333-23.466667 51.2-51.2 51.2h-153.6V695.466667c0 27.733333 25.6 51.2 55.466666 51.2h260.266667c27.733333 0 51.2-23.466667 51.2-51.2v-209.066667C689.066667 435.2 640 341.33333300000004 640 281.6c0-61.866667 36.266667-113.066667 83.2-140.8v-40.533333h49.066667v61.866666c-55.466667 10.666667-100.266667 59.733333-100.266667 119.466667 0 68.266667 78.933333 179.2 78.933333 179.2 23.466667 36.266667 57.6 36.266667 81.066667 0 0 0 78.933333-110.933333 78.933333-179.2 0-59.733333-42.666667-110.933333-100.266666-119.466667v-61.866666h66.133333c21.333333 0 38.4-17.066667 38.4-38.4s-17.066667-38.4-38.4-38.4H166.4c-21.333333 0-38.4 17.066667-38.4 38.4s17.066667 38.4 38.4 38.4h38.4z m64 337.066667c-8.533333 0-12.8-4.266667-12.8-12.8 0-8.533333 4.266667-12.8 12.8-12.8h202.666667c8.533333 0 12.8 4.266667 12.8 12.8 0 8.533333-4.266667 12.8-12.8 12.8h-202.666667z m0-76.8c-8.533333 0-12.8-4.266667-12.8-12.8 0-8.533333 4.266667-12.8 12.8-12.8h202.666667c8.533333 0 12.8 4.266667 12.8 12.8 0 8.533333-4.266667 12.8-12.8 12.8h-202.666667z m0-78.933333c-8.533333 0-12.8-4.266667-12.8-12.8 0-8.533333 4.266667-12.8 12.8-12.8h202.666667c8.533333 0 12.8 4.266667 12.8 12.8 0 8.533333-4.266667 12.8-12.8 12.8h-202.666667z"  horiz-adv-x="1024" />

    
    <glyph glyph-name="replyman" unicode="&#59026;" d="M554.666667 384c-55.466667-27.733333-55.466667-55.466667 0-83.2 55.466667-27.733333 83.2-12.8 83.2 40.533333 0 57.6-27.733333 70.4-83.2 42.666667z m-42.666667 27.733333c108.8 0 196.266667 89.6 196.266667 198.4C708.266667 721.066667 620.8 810.666667 512 810.666667s-196.266667-89.6-196.266667-198.4c-2.133333-110.933333 87.466667-200.533333 196.266667-200.533334z m187.733333 2.133334L512 32l-187.733333 381.866667c-27.733333-10.666667-46.933333-36.266667-46.933334-68.266667v-313.6c0-40.533333 32-74.666667 72.533334-74.666667h324.266666c40.533333 0 72.533333 32 72.533334 74.666667V343.46666700000003c0 32-19.2 59.733333-46.933334 70.4zM469.333333 384c-55.466667 27.733333-83.2 12.8-83.2-40.533333 0-55.466667 27.733333-68.266667 83.2-40.533334 55.466667 25.6 55.466667 53.333333 0 81.066667z"  horiz-adv-x="1024" />

    
    <glyph glyph-name="friend" unicode="&#59027;" d="M704 505.6c83.2 0 149.333333 68.266667 149.333333 151.466667 0 85.333333-66.133333 153.6-149.333333 153.6s-149.333333-68.266667-149.333333-151.466667c0-85.333333 66.133333-153.6 149.333333-153.6z m-339.2 0c83.2 0 149.333333 68.266667 149.333333 151.466667 0 83.2-66.133333 151.466667-149.333333 151.466666s-149.333333-68.266667-149.333333-151.466666c0-83.2 66.133333-151.466667 149.333333-151.466667zM576 533.333333c4.266667 17.066667-51.2 17.066667-64 0s-76.8-66.133333-130.133333-66.133333c-55.466667-2.133333-102.4 29.866667-115.2 34.133333-12.8 4.266667-27.733333-6.4-27.733334-6.4S170.666667 373.33333300000004 170.666667 341.33333300000004s108.8-125.866667 119.466666-136.533333L298.666667-21.33333300000004s-4.266667-19.2 19.2-21.333334H469.333333s19.2 10.666667 21.333334 21.333334V448c17.066667 2.133333 81.066667 68.266667 85.333333 85.333333zM277.333333 298.66666699999996c-10.666667 6.4-36.266667 38.4-42.666666 64s42.666667 49.066667 42.666666 49.066666c12.8 6.4 19.2-53.333333 21.333334-70.4s-10.666667-49.066667-21.333334-42.666666z m509.866667 196.266666l-27.733333-12.8s-36.266667-12.8-57.6-12.8c-19.2 0-49.066667 12.8-49.066667 12.8l-27.733333 12.8c-23.466667 6.4-40.533333-21.333333-40.533334-21.333333-12.8-12.8-29.866667-27.733333-53.333333-46.933333-32-25.6 6.4-68.266667 53.333333-102.4 0 0 6.4-326.4 10.666667-343.466667s8.533333-21.333333 14.933333-21.333333h147.2c4.266667 0 25.6 4.266667 29.866667 21.333333s0 192 0 192c55.466667 0 64 74.666667 64 74.666667V448s-4.266667 29.866667-21.333333 42.666667-42.666667 4.266667-42.666667 4.266666z"  horiz-adv-x="1024" />

    
    <glyph glyph-name="couple" unicode="&#59028;" d="M601.6 467.2c64 0 117.333333 57.6 117.333333 128s-51.2 128-117.333333 128c-38.4 0-83.2-21.333333-104.533333-51.2-14.933333-21.333333-2.133333-44.8-12.8-76.8-17.066667-59.733333 53.333333-128 117.333333-128z m-266.666667 53.333333c72.533333 0 130.133333 59.733333 130.133334 134.4S407.466667 789.333333 334.933333 789.333333c-72.533333 0-130.133333-59.733333-130.133333-134.4s57.6-134.4 130.133333-134.4zM780.8 780.8c-19.2 49.066667-72.533333 36.266667-72.533333-19.2 0-29.866667 25.6-42.666667 42.666666-55.466667 17.066667-12.8 27.733333-27.733333 29.866667-36.266666 2.133333 6.4 14.933333 23.466667 29.866667 36.266666 17.066667 12.8 42.666667 23.466667 42.666666 55.466667 0 55.466667-55.466667 66.133333-72.533333 19.2z m-49.066667-505.6s-8.533333 85.333333 0 128 0 61.866667-23.466666 64-59.733333-19.2-85.333334-25.6c-25.6-4.266667-72.533333 0-72.533333 0-10.666667 0-34.133333 2.133333-36.266667-38.4-2.133333-36.266667 49.066667-153.6 49.066667-153.6-27.733333-21.333333-72.533333-115.2-72.533333-115.2 6.4-25.6 85.333333-38.4 85.333333-38.4v-115.2c0-25.6 23.466667-25.6 23.466667-25.6h85.333333c27.733333 0 23.466667 38.4 23.466667 38.4v115.2c64-2.133333 128 66.133333 121.6 89.6-6.4 23.466667-98.133333 76.8-98.133334 76.8zM490.666667 238.93333299999995v204.8c0 29.866667-25.6 64-49.066667 64-27.733333 0-53.333333-23.466667-100.266667-25.6-49.066667-2.133333-46.933333 23.466667-87.466666 25.6-46.933333 2.133333-59.733333-49.066667-59.733334-49.066666S192 302.93333299999995 192 238.93333299999995c0-57.6 49.066667-64 49.066667-64v-166.4c0-51.2 49.066667-51.2 49.066666-51.2h110.933334c40.533333 0 36.266667 51.2 36.266666 51.2v166.4c51.2 0 53.333333 64 53.333334 64z"  horiz-adv-x="1024" />

    
    <glyph glyph-name="family" unicode="&#59029;" d="M422.4 358.4c0-38.4 29.866667-70.4 68.266667-70.4 38.4 0 68.266667 32 68.266666 70.4s-29.866667 70.4-68.266666 70.4c-38.4 0-68.266667-32-68.266667-70.4z m249.6 108.8c68.266667 0 125.866667 57.6 125.866667 128s-55.466667 128-125.866667 128-125.866667-57.6-125.866667-128c2.133333-70.4 57.6-128 125.866667-128z m-354.133333 59.733333c76.8 0 138.666667 64 138.666666 142.933334C458.666667 746.666667 394.666667 810.666667 317.866667 810.666667s-138.666667-64-138.666667-142.933334c0-76.8 61.866667-140.8 138.666667-140.8z m241.066666-251.733333c-36.266667 6.4-51.2-12.8-51.2-12.8H469.333333c-14.933333 25.6-51.2 12.8-51.2 12.8v-115.2c0-42.666667 12.8-38.4 12.8-38.4v-128c0-38.4 25.6-38.4 25.6-38.4h61.866667c27.733333 0 25.6 38.4 25.6 38.4v128c14.933333 0 12.8 38.4 12.8 38.4v115.2z m290.133334-102.4c-14.933333 14.933333-74.666667 89.6-74.666667 89.6v166.4c0 10.666667-12.8 12.8-12.8 12.8-19.2 6.4-44.8 6.4-51.2 0-6.4-6.4-59.733333-12.8-74.666667 0-38.4 27.733333-87.466667-12.8-87.466666-12.8 17.066667-8.533333 36.266667-32 38.4-64 2.133333-40.533333-12.8-51.2-12.8-51.2l-12.8-12.8c23.466667-4.266667 25.6-51.2 25.6-51.2V149.33333300000004c-14.933333-2.133333-12.8-51.2-12.8-51.2v-102.4C571.733333-42.66666699999996 597.333333-42.66666699999996 597.333333-42.66666699999996h125.866667c29.866667 0 38.4 38.4 38.4 38.4v115.2c34.133333-2.133333 113.066667 38.4 87.466667 61.866667z m-452.266667 179.2c-6.4 91.733333 74.666667 102.4 74.666667 102.4 10.666667 14.933333-2.133333 76.8-51.2 76.8-29.866667 0-40.533333-25.6-100.266667-25.6-55.466667 0-100.266667 25.6-100.266667 25.6-49.066667-6.4-51.2-64-51.2-64v-215.466667c0-49.066667 46.933333-68.266667 46.933334-68.266666V0c0-42.666667 40.533333-42.666667 40.533333-42.666667h151.466667v153.6c-21.333333 21.333333-12.8 46.933333-12.8 115.2 0 78.933333 12.8 64 12.8 64v25.6c-10.666667-4.266667-10.666667 36.266667-10.666667 36.266667z"  horiz-adv-x="1024" />

    
    <glyph glyph-name="solo" unicode="&#59030;" d="M691.2 529.066667c76.8 0 140.8 64 140.8 140.8C832 746.666667 768 810.666667 691.2 810.666667c-76.8 0-140.8-64-140.8-140.8 0-78.933333 64-140.8 140.8-140.8z m74.666667-206.933334l38.4-57.6c10.666667-17.066667 36.266667-23.466667 53.333333-10.666666 17.066667 12.8 23.466667 36.266667 10.666667 53.333333l-89.6 136.533333c4.266667 44.8 6.4 61.866667-40.533334 68.266667 0 0-40.533333-10.666667-66.133333-8.533333-25.6 2.133333-53.333333 17.066667-53.333333 17.066666-59.733333 12.8-78.933333-19.2-87.466667-29.866666l-96-147.2c-4.266667-6.4-6.4-14.933333-6.4-21.333334l-51.2-74.666666-53.333333 34.133333c-17.066667 12.8-42.666667 6.4-53.333334-10.666667l-136.533333-196.266666c-12.8-17.066667-6.4-42.666667 10.666667-53.333334l59.733333-36.266666c17.066667-12.8 42.666667-6.4 53.333333 10.666666l136.533334 196.266667c6.4 8.533333 6.4 17.066667 6.4 25.6l49.066666 72.533333c17.066667-10.666667 40.533333-4.266667 51.2 12.8l32 49.066667-4.266666-53.333333c-2.133333-10.666667 0-21.333333 2.133333-29.866667 0-2.133333-2.133333-4.266667-2.133333-4.266667l-91.733334-238.933333c-6.4-19.2 2.133333-38.4 21.333334-46.933333l44.8-19.2c19.2-6.4 38.4 2.133333 46.933333 21.333333l83.2 215.466667 14.933333-2.133334 96-213.333333c8.533333-17.066667 29.866667-25.6 46.933334-17.066667l46.933333 23.466667c17.066667 8.533333 25.6 29.866667 17.066667 46.933333l-98.133334 217.6c2.133333 6.4 4.266667 12.8 4.266667 19.2l4.266667 51.2z"  horiz-adv-x="1024" />

    
    <glyph glyph-name="place" unicode="&#59031;" d="M341.333333 518.4V64c0-12.8-8.533333-21.333333-21.333333-21.333333h-21.333333c-12.8 0-21.333333 8.533333-21.333334 21.333333V768c0 12.8 8.533333 21.333333 21.333334 21.333333 2.133333 0 4.266667 0 8.533333-2.133333l509.866667-198.4c10.666667-4.266667 17.066667-17.066667 12.8-27.733333-2.133333-4.266667-6.4-8.533333-10.666667-10.666667L418.133333 362.66666699999996c-10.666667-4.266667-23.466667 0-27.733333 10.666666-2.133333 2.133333-2.133333 6.4-2.133333 8.533334v134.4c0 12.8-8.533333 21.333333-21.333334 21.333333-14.933333 2.133333-25.6-6.4-25.6-19.2zM388.266667 64c46.933333-8.533333 81.066667-29.866667 81.066666-51.2 0-29.866667-72.533333-55.466667-160-55.466667S149.333333-19.200000000000045 149.333333 12.799999999999955c0 21.333333 32 40.533333 81.066667 51.2v-6.4c0-23.466667 34.133333-44.8 81.066667-44.8s81.066667 21.333333 81.066666 44.8c-4.266667 0-4.266667 4.266667-4.266666 6.4z"  horiz-adv-x="1024" />

    
    <glyph glyph-name="others" unicode="&#59032;" d="M170.666667 426.666667h298.666666V725.333333H170.666667v-298.666666zM554.666667 725.333333v-298.666666h298.666666V725.333333H554.666667zM170.666667 42.66666699999996h298.666666V341.33333300000004H170.666667v-298.666666z m384 0h298.666666V341.33333300000004H554.666667v-298.666666z"  horiz-adv-x="1024" />

    
    <glyph glyph-name="hotel" unicode="&#59033;" d="M853.333333 106.66666699999996H170.666667v-42.666667c0-12.8-8.533333-21.333333-21.333334-21.333333H106.666667c-12.8 0-21.333333 8.533333-21.333334 21.333333v106.666667c0 12.8 8.533333 21.333333 21.333334 21.333333h810.666666c12.8 0 21.333333-8.533333 21.333334-21.333333v-106.666667c0-12.8-8.533333-21.333333-21.333334-21.333333h-42.666666c-12.8 0-21.333333 8.533333-21.333334 21.333333v42.666667z m85.333334 160V234.66666699999996H85.333333s0 10.666667 2.133334 32c0 59.733333 29.866667 81.066667 93.866666 128 51.2 40.533333 104.533333 93.866667 192 93.866666h260.266667c106.666667 0 155.733333-55.466667 209.066667-102.4 55.466667-49.066667 96-70.4 96-119.466666zM789.333333 469.333333v42.666667c0 12.8-8.533333 21.333333-21.333333 21.333333H256c-12.8 0-21.333333-8.533333-21.333333-21.333333v-42.666667H170.666667c-12.8 0-21.333333 8.533333-21.333334 21.333334v170.666666c0 10.666667 0 64 85.333334 64h554.666666c70.4 2.133333 85.333333-46.933333 85.333334-64v-170.666666c-2.133333-12.8-12.8-21.333333-21.333334-21.333334h-64z"  horiz-adv-x="1024" />

    
    <glyph glyph-name="gift" unicode="&#59034;" d="M537.6 347.733333h275.2V0H537.6zM213.333333 347.733333h275.2V0H213.333333zM725.333333 627.2c6.4 12.8 10.666667 29.866667 10.666667 44.8C736 725.333333 693.333333 768 640 768c-38.4 0-78.933333-19.2-108.8-55.466667-6.4-8.533333-12.8-17.066667-19.2-27.733333-6.4 10.666667-12.8 19.2-19.2 27.733333C460.8 748.8 420.266667 768 381.866667 768c-53.333333 0-96-42.666667-96-96 0-17.066667 4.266667-32 10.666666-44.8H166.4v-228.266667h320V627.2h49.066667v-228.266667h320V627.2H725.333333z m-343.466666 0c-25.6 0-44.8 21.333333-44.8 44.8s21.333333 44.8 44.8 44.8c44.8 0 89.6-46.933333 100.266666-91.733333l-100.266666 2.133333z m260.266666 0h-100.266666c12.8 44.8 55.466667 91.733333 100.266666 91.733333 25.6 0 44.8-21.333333 44.8-44.8 0-27.733333-19.2-46.933333-44.8-46.933333z"  horiz-adv-x="1024" />

    
    <glyph glyph-name="ic_account_circle_px" unicode="&#59035;" d="M512 810.666667C276.266667 810.666667 85.333333 619.733333 85.333333 384s190.933333-426.666667 426.666667-426.666667 426.666667 190.933333 426.666667 426.666667S747.733333 810.666667 512 810.666667z m0-128c70.613333 0 128-57.386667 128-128 0-70.826667-57.386667-128-128-128s-128 57.173333-128 128c0 70.613333 57.386667 128 128 128z m0-605.866667c-106.88 0-200.746667 54.613333-256 137.386667 1.066667 84.693333 170.88 131.413333 256 131.413333s254.72-46.72 256-131.413333c-55.253333-82.773333-149.12-137.386667-256-137.386667z"  horiz-adv-x="1024" />

    
    <glyph glyph-name="errortips" unicode="&#59036;" d="M512 810.666667C276.48 810.666667 85.333333 619.733333 85.333333 384s191.146667-426.666667 426.666667-426.666667 426.666667 190.933333 426.666667 426.666667S747.52 810.666667 512 810.666667z m42.666667-640h-85.333334v85.333333h85.333334v-85.333333z m0 170.666666h-85.333334V597.333333h85.333334v-256z"  horiz-adv-x="1024" />

    
    <glyph glyph-name="ok" unicode="&#59037;" d="M405.333333 179.20000000000005L157.866667 426.666667c-17.066667 17.066667-42.666667 17.066667-59.733334 0s-17.066667-42.666667 0-59.733334l262.4-262.4c25.6-25.6 66.133333-25.6 89.6 0 0 0 157.866667 162.133333 475.733334 484.266667 17.066667 17.066667 17.066667 44.8 0 59.733333-17.066667 17.066667-44.8 17.066667-59.733334 0L405.333333 179.20000000000005z"  horiz-adv-x="1024" />

    
    <glyph glyph-name="calendar" unicode="&#59038;" d="M398.933333 341.33333300000004c0 10.666667-8.533333 19.2-19.2 19.2h-66.133333c-10.666667 0-19.2-8.533333-19.2-19.2v-66.133333c0-10.666667 8.533333-19.2 19.2-19.2h66.133333c10.666667 0 19.2 8.533333 19.2 19.2V341.33333300000004zM563.2 341.33333300000004c0 10.666667-8.533333 19.2-19.2 19.2h-66.133333c-10.666667 0-19.2-8.533333-19.2-19.2v-66.133333c0-10.666667 8.533333-19.2 19.2-19.2h66.133333c10.666667 0 19.2 8.533333 19.2 19.2V341.33333300000004zM727.466667 341.33333300000004c0 10.666667-8.533333 19.2-19.2 19.2h-66.133334c-10.666667 0-19.2-8.533333-19.2-19.2v-66.133333c0-10.666667 8.533333-19.2 19.2-19.2h66.133334c10.666667 0 19.2 8.533333 19.2 19.2V341.33333300000004zM398.933333 177.06666700000005c0 10.666667-8.533333 19.2-19.2 19.2h-66.133333c-10.666667 0-19.2-8.533333-19.2-19.2v-66.133334c0-10.666667 8.533333-19.2 19.2-19.2h66.133333c10.666667 0 19.2 8.533333 19.2 19.2v66.133334zM563.2 177.06666700000005c0 10.666667-8.533333 19.2-19.2 19.2h-66.133333c-10.666667 0-19.2-8.533333-19.2-19.2v-66.133334c0-10.666667 8.533333-19.2 19.2-19.2h66.133333c10.666667 0 19.2 8.533333 19.2 19.2v66.133334zM727.466667 177.06666700000005c0 10.666667-8.533333 19.2-19.2 19.2h-66.133334c-10.666667 0-19.2-8.533333-19.2-19.2v-66.133334c0-10.666667 8.533333-19.2 19.2-19.2h66.133334c10.666667 0 19.2 8.533333 19.2 19.2v66.133334zM844.8 706.133333v-100.266666c0-44.8-36.266667-81.066667-81.066667-81.066667h-51.2c-44.8 0-83.2 36.266667-83.2 81.066667V706.133333h-234.666666v-100.266666c0-44.8-36.266667-81.066667-83.2-81.066667h-51.2c-44.8 0-81.066667 36.266667-81.066667 81.066667V706.133333C138.666667 704 106.666667 672 106.666667 631.4666669999999v-586.666667c0-40.533333 34.133333-74.666667 74.666666-74.666667h661.333334c40.533333 0 74.666667 34.133333 74.666666 74.666667V631.4666669999999c0 40.533333-32 72.533333-72.533333 74.666666zM789.333333 49.06666700000005H234.666667c-17.066667 0-32 14.933333-32 32V384c0 17.066667 14.933333 32 32 32h554.666666c17.066667 0 32-14.933333 32-32v-302.933333c0-17.066667-14.933333-32-32-32zM260.266667 578.133333h51.2c14.933333 0 27.733333 12.8 27.733333 27.733334V770.133333c0 14.933333-12.8 27.733333-27.733333 27.733334h-51.2c-14.933333 0-27.733333-12.8-27.733334-27.733334v-164.266666c0-14.933333 12.8-27.733333 27.733334-27.733334zM710.4 578.133333h51.2c14.933333 0 27.733333 12.8 27.733333 27.733334V770.133333c0 14.933333-12.8 27.733333-27.733333 27.733334h-51.2c-14.933333 0-27.733333-12.8-27.733333-27.733334v-164.266666c0-14.933333 12.8-27.733333 27.733333-27.733334z"  horiz-adv-x="1024" />

    
    <glyph glyph-name="img" unicode="&#59039;" d="M896 85.33333300000004V682.666667c0 47.146667-38.186667 85.333333-85.333333 85.333333H213.333333c-47.146667 0-85.333333-38.186667-85.333333-85.333333v-597.333334c0-47.146667 38.186667-85.333333 85.333333-85.333333h597.333334c47.146667 0 85.333333 38.186667 85.333333 85.333333zM362.666667 320l106.666666-128.213333L618.666667 384l192-256H213.333333l149.333334 192z"  horiz-adv-x="1024" />

    
    <glyph glyph-name="ic_perm_identity_px" unicode="&#59040;" d="M512 644.266667a89.6 89.6 0 1 0 0.021333-179.178667A89.6 89.6 0 0 0 512 644.266667m0-384c126.933333 0 260.266667-62.08 260.266667-89.6v-46.933334H251.733333V170.666667c0 27.52 133.333333 89.6 260.266667 89.6M512 725.333333c-94.293333 0-170.666667-76.373333-170.666667-170.666666 0-94.08 76.373333-170.666667 170.666667-170.666667s170.666667 76.586667 170.666667 170.666667c0 94.293333-76.373333 170.666667-170.666667 170.666666z m0-384c-113.706667 0-341.333333-56.96-341.333333-170.666666v-128h682.666666v128c0 113.706667-227.626667 170.666667-341.333333 170.666666z"  horiz-adv-x="1024" />

    
    <glyph glyph-name="noresult" unicode="&#59041;" d="M42.666667 0h938.666666L512 810.666667 42.666667 0z m512 128h-85.333334v85.333333h85.333334v-85.333333z m0 170.666667h-85.333334v170.666666h85.333334v-170.666666z"  horiz-adv-x="1024" />

    
    <glyph glyph-name="person" unicode="&#59042;" d="M512 384c94.293333 0 170.666667 76.586667 170.666667 170.666667 0 94.293333-76.373333 170.666667-170.666667 170.666666s-170.666667-76.373333-170.666667-170.666666c0-94.08 76.373333-170.666667 170.666667-170.666667z m0-85.333333c-113.706667 0-341.333333-56.96-341.333333-170.666667v-85.333333h682.666666v85.333333c0 113.706667-227.626667 170.666667-341.333333 170.666667z"  horiz-adv-x="1024" />

    
    <glyph glyph-name="correct" unicode="&#59043;" d="M512 768C300.8 768 128 595.2 128 384s172.8-384 384-384 384 172.8 384 384S723.2 768 512 768z m-59.733333-561.066667L275.2 384l68.266667 68.266667 108.8-108.8L682.666667 573.866667l68.266666-68.266667-298.666666-298.666667z"  horiz-adv-x="1024" />

    
    <glyph glyph-name="shopping" unicode="&#59044;" d="M298.666667 597.333333c0 117.333333 96 213.333333 213.333333 213.333334s213.333333-96 213.333333-213.333334h85.333334c23.466667 0 42.666667-19.2 42.666666-42.666666v-554.666667c0-23.466667-19.2-42.666667-42.666666-42.666667H213.333333c-23.466667 0-42.666667 19.2-42.666666 42.666667V554.666667c0 23.466667 19.2 42.666667 42.666666 42.666666h85.333334z m85.333333 0h256c0 70.4-57.6 128-128 128s-128-57.6-128-128z m-42.666667-149.333333c23.466667 0 42.666667 19.2 42.666667 42.666667s-19.2 42.666667-42.666667 42.666666-42.666667-19.2-42.666666-42.666666 19.2-42.666667 42.666666-42.666667z m341.333334 0c23.466667 0 42.666667 19.2 42.666666 42.666667s-19.2 42.666667-42.666666 42.666666-42.666667-19.2-42.666667-42.666666 19.2-42.666667 42.666667-42.666667z"  horiz-adv-x="1024" />

    
    <glyph glyph-name="common-train" unicode="&#59045;" d="M661.333333 64l64-149.333333h128l-128 149.333333h-64zM170.666667-85.33333300000004h128l64 149.333333h-64l-128-149.333333zM789.333333 725.333333c-4.266667 19.2-23.466667 42.666667-64 42.666667h-128c0 46.933333-38.4 85.333333-85.333333 85.333333s-83.2-38.4-85.333333-85.333333h-128c-42.666667 0-59.733333-23.466667-64-42.666667s-64-204.8-64-213.333333v-213.333333l42.666666-170.666667c10.666667-29.866667 38.4-42.666667 64-42.666667h469.333334c25.6 0 53.333333 12.8 64 42.666667l42.666666 170.666667V512c0 8.533333-59.733333 194.133333-64 213.333333zM512 810.666667c23.466667 0 42.666667-19.2 42.666667-42.666667s-19.2-42.666667-42.666667-42.666667-42.666667 19.2-42.666667 42.666667 19.2 42.666667 42.666667 42.666667zM298.666667 341.33333300000004c-36.266667 0-64 27.733333-64 64s27.733333 64 64 64 64-27.733333 64-64-27.733333-64-64-64z m426.666666 0c-36.266667 0-64 27.733333-64 64s27.733333 64 64 64 64-27.733333 64-64-27.733333-64-64-64z m-490.666666 192l42.666666 128c2.133333 8.533333 10.666667 21.333333 21.333334 21.333334h426.666666c8.533333 0 14.933333-4.266667 21.333334-21.333334l42.666666-128H234.666667z"  horiz-adv-x="1024" />

    
    <glyph glyph-name="area" unicode="&#59046;" d="M512 384v-341.333333l362.666667 198.4V541.866667L512 384zM149.333333 241.066667L469.333333 42.666667V384L149.333333 541.866667v-300.8zM533.333333 725.333333L151.466667 599.466667 490.666667 426.666667l384 172.8L533.333333 725.333333z"  horiz-adv-x="1024" />

    
    <glyph glyph-name="roombed" unicode="&#59048;" d="M469.333333 512H256v-85.333333h213.333333v85.333333z m362.666667-106.666667v-42.666666H192V640H85.333333v-512h106.666667v128h640v-128h106.666667V405.333333h-106.666667z"  horiz-adv-x="1024" />

    
    <glyph glyph-name="breakfast" unicode="&#59049;" d="M298.666667 618.666667L277.333333 832l21.333334-226.133333V618.666667z m128 0c0-21.333333 0-42.666667-21.333334-42.666667s-21.333333 21.333333-21.333333 42.666667V832h-42.666667v-213.333333c0-21.333333 0-42.666667-21.333333-42.666667-12.8 0-17.066667 6.4-19.2 17.066667L362.666667-64c34.133333 0 78.933333 27.733333 78.933333 59.733333L426.666667 426.666667c55.466667 0 64 106.666667 64 128V832h-42.666667l-21.333333-213.333333z m384-200.533334V426.666667l-2.133334 170.666666V686.933333 753.066667c0 44.8 4.266667 76.8-32 76.8C633.6 832 640 405.333333 640 405.333333c0-38.4 42.666667-96 81.066667-106.666666v-302.933334c0-34.133333 23.466667-61.866667 57.6-61.866666s29.866667 27.733333 29.866666 61.866666l2.133334 422.4zM234.666667 832v-277.333333c0-21.333333 8.533333-128 64-128l-14.933334-430.933334c0-34.133333 46.933333-59.733333 78.933334-59.733333L277.333333 832h-42.666666z"  horiz-adv-x="1024" />

    
    <glyph glyph-name="free_internet" unicode="&#59050;" d="M906.666667 155.733333v-38.4s-59.733333-38.4-53.333334 0c25.6 160-2.133333 241.066667-53.333333 245.333334-23.466667 2.133333-40.533333 0-51.2-2.133334V646.4c0 25.6-12.8 36.266667-36.266667 36.266667H100.266667c-23.466667 0-36.266667-17.066667-36.266667-36.266667v-418.133333C64 213.333333 85.333333 192 100.266667 192H362.666667v-85.333333h-149.333334v-64h362.666667v64h-149.333333v85.333333h283.733333c14.933333 0 36.266667 21.333333 36.266667 36.266667v66.133333c17.066667 2.133333 38.4 6.4 51.2 10.666667 0 0 53.333333-4.266667 17.066666-187.733334-6.4-32 14.933333-55.466667 36.266667-55.466666s53.333333 19.2 53.333333 19.2V42.666667h53.333334v113.066666h-51.2zM682.666667 277.333333c0-12.8-8.533333-21.333333-21.333334-21.333333H149.333333c-12.8 0-21.333333 8.533333-21.333333 21.333333V597.333333c0 12.8 8.533333 21.333333 21.333333 21.333334h512c12.8 0 21.333333-8.533333 21.333334-21.333334v-320zM149.333333 277.333333h512V597.333333H149.333333v-320z"  horiz-adv-x="1024" />

    
    <glyph glyph-name="business" unicode="&#59051;" d="M539.733333 123.73333300000002L458.666667 213.33333300000004s-66.133333 72.533333-104.533334 68.266667c-2.133333 0-23.466667-202.666667-23.466666-202.666667l-34.133334 147.2 23.466667 23.466667-34.133333 34.133333-34.133334-34.133333 23.466667-23.466667-23.466667-147.2-34.133333 202.666667s-17.066667 2.133333-23.466667 0c-6.4-2.133333-83.2-55.466667-104.533333-136.533333C66.133333 66.133333 64 0 64 0h405.333333v34.133333s34.133333-34.133333 57.6-34.133333c25.6 0 40.533333 4.266667 57.6 23.466667 17.066667 19.2 104.533333 136.533333 104.533334 136.533333L618.666667 217.60000000000002l-78.933334-93.866667z m-249.6 185.6c14.933333 0 108.8 53.333333 108.8 164.266667s-108.8 104.533333-108.8 104.533333c-14.933333 4.266667-108.8-6.4-108.8-104.533333 0-100.266667 91.733333-164.266667 108.8-164.266667zM917.333333 789.333333H108.8c-23.466667 0-42.666667-19.2-42.666667-42.666666v-29.866667c0-23.466667 19.2-42.666667 42.666667-42.666667v-381.866666c12.8 12.8 25.6 25.6 42.666667 36.266666V725.333333H874.666667v-552.533333c0-23.466667-19.2-42.666667-42.666667-42.666667h-98.133333c-8.533333-14.933333-19.2-29.866667-32-42.666666H832c46.933333 0 85.333333 38.4 85.333333 85.333333V674.133333c23.466667 0 42.666667 19.2 42.666667 42.666667V746.666667c0 23.466667-19.2 42.666667-42.666667 42.666666zM565.333333 533.333333c0 4.266667-2.133333 6.4-4.266666 8.533334-6.4 6.4-14.933333 6.4-21.333334 0l-85.333333-89.6c-6.4-6.4-6.4-17.066667 0-21.333334 6.4-6.4 14.933333-6.4 21.333333 0l72.533334 74.666667 74.666666-70.4c0-2.133333 2.133333-4.266667 4.266667-4.266667 4.266667-4.266667 8.533333-4.266667 12.8-4.266666 4.266667 0 10.666667 0 12.8 4.266666 2.133333 2.133333 4.266667 4.266667 4.266667 8.533334l147.2 142.933333v-29.866667c0-8.533333 6.4-14.933333 14.933333-14.933333 8.533333 0 14.933333 6.4 14.933333 14.933333v72.533334c0 8.533333-6.4 14.933333-14.933333 14.933333h-81.066667c-8.533333 0-14.933333-6.4-14.933333-14.933333 0-8.533333 6.4-14.933333 14.933333-14.933334h49.066667l-149.333333-142.933333-72.533334 66.133333z m89.6-215.466666s-27.733333-57.6-23.466666-78.933334c4.266667-21.333333 10.666667-23.466667 10.666666-23.466666l34.133334-23.466667 93.866666 78.933333-57.6 57.6-46.933333-44.8v34.133334h-10.666667z"  horiz-adv-x="1024" />

    
    <glyph glyph-name="toRight" unicode="&#59052;" d="M546.133333 738.133333c-17.066667 17.066667-17.066667 42.666667 0 59.733334s42.666667 17.066667 59.733334 0l377.6-366.933334c25.6-25.6 25.6-66.133333 2.133333-89.6 0 0-125.866667-123.733333-379.733333-371.2-17.066667-17.066667-44.8-17.066667-59.733334 0-17.066667 17.066667-17.066667 44.8 0 59.733334l362.666667 354.133333-362.666667 354.133333z"  horiz-adv-x="1024" />

    
    <glyph glyph-name="toLeft" unicode="&#59053;" d="M477.866667 738.133333c17.066667 17.066667 17.066667 42.666667 0 59.733334s-42.666667 17.066667-59.733334 0L40.533333 430.933333C14.933333 405.333333 14.933333 364.79999999999995 40.533333 341.33333300000004c0 0 125.866667-123.733333 379.733334-371.2 17.066667-17.066667 44.8-17.066667 59.733333 0 17.066667 17.066667 17.066667 44.8 0 59.733334L115.2 384l362.666667 354.133333z"  horiz-adv-x="1024" />

    
    <glyph glyph-name="toUp" unicode="&#59054;" d="M866.133333 162.133333c17.066667-17.066667 42.666667-17.066667 59.733334 0 17.066667 17.066667 17.066667 42.666667 0 59.733334L558.933333 599.4666669999999c-25.6 25.6-66.133333 25.6-89.6 2.133333 0 0-123.733333-125.866667-371.2-379.733333-17.066667-17.066667-17.066667-44.8 0-59.733334 17.066667-17.066667 44.8-17.066667 59.733334 0l354.133333 362.666667 354.133333-362.666667z"  horiz-adv-x="1024" />

    
    <glyph glyph-name="distance" unicode="&#59056;" d="M181.333333 853.333333C104.533333 853.333333 42.666667 791.466667 42.666667 714.666667c0-27.733333 8.533333-53.333333 21.333333-74.666667l106.666667-192 128 192c12.8 21.333333 21.333333 46.933333 21.333333 74.666667C320 791.466667 258.133333 853.333333 181.333333 853.333333z m0-192C151.466667 661.333333 128 684.8 128 714.666667S151.466667 768 181.333333 768 234.666667 744.533333 234.666667 714.666667 211.2 661.333333 181.333333 661.333333zM426.666667 448c-21.333333 27.733333-53.333333 42.666667-85.333334 53.333333v-46.933333c27.733333-12.8 55.466667-34.133333 74.666667-70.4h51.2c-8.533333 19.2-21.333333 40.533333-40.533333 64z m-192 64l-21.333334-42.666667h21.333334s40.533333 6.4 85.333333-6.4v42.666667c-44.8 8.533333-85.333333 6.4-85.333333 6.4z m258.133333-315.733333l-44.8-8.533334c2.133333-53.333333 10.666667-93.866667 21.333333-130.133333l44.8 12.8c-12.8 40.533333-19.2 87.466667-21.333333 125.866667zM1002.666667 279.46666700000003c0 104.533333-85.333333 189.866667-192 189.866666s-192-85.333333-192-189.866666c0-38.4 10.666667-72.533333 29.866666-102.4L795.733333-85.33333300000004l177.066667 262.4c19.2 29.866667 29.866667 64 29.866667 102.4z m-192-72.533334c-40.533333 0-74.666667 32-74.666667 72.533334s32 72.533333 74.666667 72.533333c40.533333 0 74.666667-32 74.666666-72.533333s-34.133333-72.533333-74.666666-72.533334zM490.666667 277.33333300000004c0 23.466667-2.133333 53.333333-12.8 85.333334H426.666667c10.666667-23.466667 17.066667-51.2 21.333333-85.333334v-68.266666l44.8 8.533333c-2.133333 27.733333-2.133333 49.066667-2.133333 59.733333z m106.666666-317.866666V-85.33333300000004c12.8-2.133333 21.333333-2.133333 21.333334-2.133334h106.666666v42.666667h-106.666666c-8.533333 2.133333-14.933333 4.266667-21.333334 4.266667z m-76.8 91.733333l-42.666666-12.8c27.733333-72.533333 68.266667-102.4 100.266666-115.2v46.933333c-27.733333 14.933333-44.8 44.8-57.6 81.066667z"  horiz-adv-x="1024" />

    
    <glyph glyph-name="toDown" unicode="&#59057;" d="M866.133333 605.866667c17.066667 17.066667 42.666667 17.066667 59.733334 0 17.066667-17.066667 17.066667-42.666667 0-59.733334L558.933333 168.53333299999997c-25.6-25.6-66.133333-25.6-89.6-2.133333 0 0-123.733333 125.866667-371.2 379.733333-17.066667 17.066667-17.066667 44.8 0 59.733334 17.066667 17.066667 44.8 17.066667 59.733334 0l354.133333-362.666667 354.133333 362.666667z"  horiz-adv-x="1024" />

    
    <glyph glyph-name="dimaond" unicode="&#59058;" d="M750.933333 704H273.066667L85.333333 486.4 512 42.66666699999996 938.666667 486.4z"  horiz-adv-x="1024" />

    
    <glyph glyph-name="ic_guest_rating" unicode="&#59059;" d="M298.666667 362.666667H128s-21.333333-8.533333-21.333333-42.666667v-128l21.333333-128 21.333333-85.333333h149.333334s21.333333 2.133333 21.333333 42.666666h-21.333333V320h21.333333s4.266667 38.4-21.333333 42.666667z m-53.333334-341.333334c-17.066667 0-32 14.933333-32 32s14.933333 32 32 32 32-14.933333 32-32-14.933333-32-32-32zM917.333333 384c-6.4 59.733333-29.866667 89.6-85.333333 85.333333-55.466667-4.266667-192-21.333333-192-21.333333s-68.266667 2.133333 0 64 93.866667 119.466667 64 213.333333c-29.866667 93.866667-123.733333 87.466667-128 85.333334 0 0 36.266667-19.2 0-106.666667s-132.266667-181.333333-149.333333-213.333333-55.466667-134.4-85.333334-149.333334v-320s40.533333-6.4 85.333334-21.333333 110.933333-42.666667 149.333333-42.666667h213.333333s72.533333-2.133333 64 149.333334c0 0 42.666667-8.533333 42.666667 21.333333s-21.333333 85.333333-21.333333 85.333333 42.666667 8.533333 42.666666 42.666667-21.333333 64-21.333333 64 27.733333 4.266667 21.333333 64z"  horiz-adv-x="1024" />

    
    <glyph glyph-name="infant" unicode="&#59061;" d="M428.8 104.533333s-25.6 32 40.533333 64l-61.866666 64s-113.066667-64-104.533334-106.666666c8.533333-42.666667 83.2-149.333333 83.2-149.333334s40.533333-40.533333 83.2 0c27.733333 29.866667 12.8 49.066667 0 64s-40.533333 64-40.533333 64zM512 554.666667c57.6 0 104.533333 46.933333 104.533333 106.666666S569.6 768 512 768s-104.533333-46.933333-104.533333-106.666667 46.933333-106.666667 104.533333-106.666666z m249.6-189.866667c-23.466667 21.333333-123.733333 125.866667-123.733333 125.866667s-19.2 21.333333-61.866667 21.333333h-64-61.866667c-42.666667 0-61.866667-21.333333-61.866666-21.333333s-100.266667-104.533333-123.733334-125.866667c-23.466667-21.333333-38.4-36.266667-21.333333-64 21.333333-38.4 61.866667-21.333333 61.866667-21.333333L405.333333 384v-85.333333h213.333334v85.333333l100.266666-102.4s40.533333-17.066667 61.866667 21.333333c19.2 25.6 4.266667 40.533333-19.2 61.866667z m-145.066667-132.266667l-61.866666-64c66.133333-32 40.533333-64 40.533333-64s-29.866667-49.066667-40.533333-64-27.733333-36.266667 0-64c40.533333-40.533333 83.2 0 83.2 0s74.666667 106.666667 83.2 149.333334c8.533333 42.666667-104.533333 106.666667-104.533334 106.666666z"  horiz-adv-x="1024" />

    
    <glyph glyph-name="starfull" unicode="&#59062;" d="M938.666667 490.666667h-298.666667l-128 298.666666-128-298.666666H85.333333l251.733334-204.8-98.133334-307.2L512 170.66666699999996l273.066667-192-98.133334 307.2z"  horiz-adv-x="1024" />

    
    <glyph glyph-name="pets" unicode="&#59064;" d="M317.866667 533.333333s51.2-55.466667 96-17.066666c42.666667 36.266667 49.066667 51.2 49.066666 51.2s21.333333 25.6-6.4 78.933333c-29.866667 61.866667-96 130.133333-145.066666 83.2 0 0-68.266667-49.066667-40.533334-110.933333 32-61.866667 46.933333-85.333333 46.933334-85.333334z m290.133333-17.066666c46.933333-38.4 96 17.066667 96 17.066666s17.066667 23.466667 44.8 87.466667c27.733333 64-40.533333 110.933333-40.533333 110.933333-49.066667 46.933333-115.2-23.466667-145.066667-83.2-27.733333-55.466667-6.4-78.933333-6.4-78.933333s10.666667-17.066667 51.2-53.333333z m296.533333 29.866666c-40.533333 53.333333-117.333333-2.133333-157.866666-57.6-36.266667-49.066667-19.2-76.8-19.2-76.8s4.266667-17.066667 38.4-57.6c38.4-46.933333 98.133333 0 98.133333 0s19.2 21.333333 59.733333 76.8-19.2 115.2-19.2 115.2zM571.733333 448c-19.2 23.466667-59.733333 21.333333-59.733333 21.333333s-40.533333 2.133333-59.733333-19.2c-17.066667-23.466667-149.333333-187.733333-196.266667-232.533333-46.933333-44.8-29.866667-206.933333 138.666667-194.133333 74.666667 6.4 70.4 36.266667 117.333333 38.4 46.933333-2.133333 42.666667-32 117.333333-38.4 168.533333-14.933333 183.466667 149.333333 138.666667 194.133333-46.933333 42.666667-179.2 209.066667-196.266667 230.4zM256 352c34.133333 42.666667 38.4 57.6 38.4 57.6s17.066667 27.733333-19.2 76.8c-40.533333 55.466667-117.333333 113.066667-157.866667 57.6 0 0-57.6-59.733333-19.2-117.333333 38.4-57.6 59.733333-76.8 59.733334-76.8s59.733333-44.8 98.133333 2.133333z"  horiz-adv-x="1024" />

    
    <glyph glyph-name="price-descend" unicode="&#59066;" d="M349.866667 396.8l-85.333334 21.333333c-83.2 19.2-123.733333 49.066667-123.733333 102.4 0 64 66.133333 108.8 149.333333 108.8s140.8-38.4 155.733334-98.133333h74.666666c-12.8 91.733333-89.6 151.466667-198.4 162.133333V802.133333C320 817.066667 305.066667 832 288 832S256 817.066667 256 800v-108.8c-110.933333-10.666667-194.133333-83.2-194.133333-174.933333 0-89.6 55.466667-136.533333 170.666666-164.266667l93.866667-23.466667c83.2-19.2 123.733333-51.2 123.733333-106.666666 0-66.133333-68.266667-113.066667-162.133333-113.066667-91.733333 0-151.466667 40.533333-168.533333 102.4H42.666667c12.8-96 93.866667-157.866667 213.333333-166.4v-76.8c0-17.066667 14.933333-32 32-32s32 14.933333 32 32v76.8c119.466667 10.666667 209.066667 83.2 209.066667 183.466667 0 91.733333-59.733333 140.8-179.2 168.533333zM938.666667 192l-149.333334-157.866667V789.333333c0 12.8-8.533333 21.333333-21.333333 21.333334s-21.333333-8.533333-21.333333-21.333334v-755.2L597.333333 192l-42.666666-42.666667 213.333333-213.333333 213.333333 213.333333-42.666666 42.666667z"  horiz-adv-x="1024" />

    
    <glyph glyph-name="price-ascend" unicode="&#59067;" d="M349.866667 396.8l-85.333334 21.333333c-83.2 19.2-123.733333 49.066667-123.733333 102.4 0 64 66.133333 108.8 149.333333 108.8s140.8-38.4 155.733334-98.133333h74.666666c-12.8 91.733333-89.6 151.466667-198.4 162.133333V802.133333C320 817.066667 305.066667 832 288 832S256 817.066667 256 800v-108.8c-110.933333-10.666667-194.133333-83.2-194.133333-174.933333 0-89.6 55.466667-136.533333 170.666666-164.266667l93.866667-23.466667c83.2-19.2 123.733333-51.2 123.733333-106.666666 0-66.133333-68.266667-113.066667-162.133333-113.066667-91.733333 0-151.466667 40.533333-168.533333 102.4H42.666667c12.8-96 93.866667-157.866667 213.333333-166.4v-76.8c0-17.066667 14.933333-32 32-32s32 14.933333 32 32v76.8c119.466667 10.666667 209.066667 83.2 209.066667 183.466667 0 91.733333-59.733333 140.8-179.2 168.533333zM768 810.666667L554.666667 597.333333l42.666666-42.666666 149.333334 157.866666V-42.66666699999996c0-12.8 8.533333-21.333333 21.333333-21.333333s21.333333 8.533333 21.333333 21.333333V712.533333l149.333334-157.866666 42.666666 42.666666L768 810.666667z"  horiz-adv-x="1024" />

    
    <glyph glyph-name="close" unicode="&#59071;" d="M512 443.733333L780.8 712.533333c17.066667 17.066667 42.666667 17.066667 59.733333 0 17.066667-17.066667 17.066667-42.666667 0-59.733333L571.733333 384l268.8-268.8c17.066667-17.066667 17.066667-42.666667 0-59.733333-17.066667-17.066667-42.666667-17.066667-59.733333 0L512 324.266667 243.2 55.46666700000003c-17.066667-17.066667-42.666667-17.066667-59.733333 0-17.066667 17.066667-17.066667 42.666667 0 59.733333L452.266667 384 183.466667 652.8c-17.066667 17.066667-17.066667 42.666667 0 59.733333s42.666667 17.066667 59.733333 0L512 443.733333z"  horiz-adv-x="1024" />

    
    <glyph glyph-name="list" unicode="&#59072;" d="M128 341.33333300000004h85.333333v85.333334H128v-85.333334z m0-170.666666h85.333333v85.333333H128v-85.333333z m0 341.333333h85.333333v85.333333H128v-85.333333z m170.666667-170.666667h597.333333v85.333334H298.666667v-85.333334z m0-170.666666h597.333333v85.333333H298.666667v-85.333333z m0 426.666666v-85.333333h597.333333v85.333333H298.666667z"  horiz-adv-x="1024" />

    
    <glyph glyph-name="ic_map_px" unicode="&#59073;" d="M874.666667 768c-2.346667 0-4.48-0.213333-6.613334-1.066667L640 678.4 384 768 143.573333 686.933333c-8.96-2.986667-15.573333-10.666667-15.573333-20.48V21.333333a21.397333 21.397333 0 0 1 27.946667-20.266666L384 89.6 640 0l240.64 80.853333c8.96 3.2 15.36 10.88 15.36 20.693334V746.666667c0 11.733333-9.6 21.333333-21.333333 21.333333zM640 85.333333l-256 89.813334V682.666667l256-89.813334V85.333333z"  horiz-adv-x="1024" />

    
    <glyph glyph-name="popular" unicode="&#59074;" d="M128 128h256v85.333333H128v-85.333333z m0 512v-85.333333h768v85.333333H128z m0-298.666667h512v85.333334H128v-85.333334z"  horiz-adv-x="1024" />

    
    <glyph glyph-name="location" unicode="&#59076;" d="M512 810.666667c-164.906667 0-298.666667-133.76-298.666667-298.666667 0-224 298.666667-554.666667 298.666667-554.666667s298.666667 330.666667 298.666667 554.666667c0 164.906667-133.76 298.666667-298.666667 298.666667z m0-405.333334c-58.88 0-106.666667 47.786667-106.666667 106.666667s47.786667 106.666667 106.666667 106.666667 106.666667-47.786667 106.666667-106.666667-47.786667-106.666667-106.666667-106.666667z"  horiz-adv-x="1024" />

    
    <glyph glyph-name="flight" unicode="&#59078;" d="M859.733333 810.666667c40.533333 0 74.666667-34.133333 74.666667-74.666667 0-46.933333-19.2-93.866667-53.333333-125.866667l-140.8-132.266666c-12.8-10.666667-19.2-27.733333-19.2-42.666667v-384c0-17.066667-8.533333-34.133333-21.333334-44.8l-46.933333-40.533333c-6.4-6.4-14.933333-4.266667-21.333333 2.133333-2.133333 2.133333-2.133333 4.266667-2.133334 4.266667l-91.733333 292.266666c-2.133333 8.533333-10.666667 12.8-19.2 10.666667-2.133333 0-4.266667-2.133333-6.4-4.266667l-102.4-110.933333c-4.266667-6.4-8.533333-12.8-8.533333-21.333333v-125.866667c0-6.4-2.133333-12.8-6.4-19.2l-21.333334-25.6c-4.266667-6.4-14.933333-6.4-21.333333-2.133333l-4.266667 4.266666-64 125.866667c-14.933333 27.733333-38.4 51.2-66.133333 66.133333l-123.733333 64c-6.4 4.266667-10.666667 12.8-6.4 19.2 0 2.133333 2.133333 4.266667 4.266666 4.266667l23.466667 21.333333c6.4 4.266667 12.8 6.4 21.333333 6.4h142.933334c8.533333 0 17.066667 4.266667 21.333333 8.533334l93.866667 100.266666c6.4 6.4 6.4 14.933333 0 21.333334-2.133333 2.133333-4.266667 2.133333-6.4 4.266666L96 505.6c-8.533333 2.133333-12.8 10.666667-10.666667 19.2 0 2.133333 2.133333 4.266667 2.133334 4.266667L128 576c10.666667 12.8 27.733333 21.333333 46.933333 21.333333h384c17.066667 0 32 6.4 42.666667 19.2l132.266667 140.8C765.866667 791.466667 812.8 810.666667 859.733333 810.666667z m6.4-140.8c8.533333 8.533333 14.933333 21.333333 14.933334 36.266666 0 27.733333-23.466667 51.2-51.2 51.2-14.933333 0-27.733333-6.4-36.266667-14.933333l72.533333-72.533333z"  horiz-adv-x="1024" />

    
    <glyph glyph-name="icon_ipo_city" unicode="&#59079;" d="M436.138667 687.296c0 21.226667-17.024 38.037333-38.016 38.037333h-66.261334V810.538667a28.437333 28.437333 0 1 1-56.874666 0V725.333333H208.704C187.669333 725.333333 170.666667 708.309333 170.666667 687.296v-18.858667h265.472v18.858667z m208.661333-360.192h-94.912c-20.885333 0-37.866667-16.981333-37.866667-37.930667v-360.277333h170.666667V289.173333a37.994667 37.994667 0 0 1-37.888 37.930667z m-19.008-303.402667h-56.896v56.896h56.896v-56.896z m0 132.757334h-56.896V213.333333h56.896v-56.874666z m-170.517333 474.069333h-19.136V640H170.666667v-9.472h-19.136a37.973333 37.973333 0 0 1-37.76-37.952v-663.658667h379.264V592.554667a37.76 37.76 0 0 1-37.76 37.973333z m-189.802667-606.826667H208.597333v56.896h56.896v-56.896z m0 132.757334H208.597333V213.333333h56.896v-56.874666z m0 151.68H208.597333v56.896h56.896v-56.896z m0 151.722666H208.597333v56.896h56.896v-56.896z m132.757333-436.16H341.333333v56.896h56.896v-56.896z m0 132.757334H341.333333V213.333333h56.896v-56.874666z m0 151.68H341.333333v56.896h56.896v-56.896z m0 151.722666H341.333333v56.896h56.896v-56.896z m474.218667 18.944H739.413333c-20.714667 0-37.781333-16.96-37.781333-37.888v-512.021333h208.576V440.917333c0 20.928-16.896 37.888-37.76 37.888z m-38.08-455.104h-56.896v56.896h56.896v-56.896z m0 132.757334h-56.896V213.333333h56.896v-56.874666z m0 151.68h-56.896v56.896h56.896v-56.896z"  horiz-adv-x="1024" />

    
    <glyph glyph-name="add_person__px1" unicode="&#59080;" d="M512 644.266667c49.066667 0 89.6-40.533333 89.6-89.6s-40.533333-89.6-89.6-89.6-89.6 40.533333-89.6 89.6 40.533333 89.6 89.6 89.6m0-384c128 0 260.266667-61.866667 260.266667-89.6v-46.933334H251.733333V170.666667c0 27.733333 134.4 89.6 260.266667 89.6M512 725.333333c-93.866667 0-170.666667-76.8-170.666667-170.666666s76.8-170.666667 170.666667-170.666667 170.666667 76.8 170.666667 170.666667-76.8 170.666667-170.666667 170.666666z m0-384c-113.066667 0-341.333333-57.6-341.333333-170.666666v-128h682.666666v128c0 113.066667-228.266667 170.666667-341.333333 170.666666zM908.8 441.6h-85.333333v85.333333h-42.666667v-85.333333h-85.333333v-42.666667h85.333333v-85.333333h42.666667v85.333333h85.333333z"  horiz-adv-x="1024" />

    
    <glyph glyph-name="brand" unicode="&#59081;" d="M548.266667 616.5333330000001l100.266666-247.466666c4.266667-10.666667 17.066667-17.066667 27.733334-10.666667 2.133333 0 4.266667 2.133333 6.4 4.266667l91.733333 81.066666c-4.266667 6.4-6.4 14.933333-6.4 25.6 0 36.266667 27.733333 64 64 64s64-27.733333 64-64-27.733333-64-64-64l-38.4-196.266666c-2.133333-10.666667-10.666667-17.066667-21.333333-17.066667H251.733333c-10.666667 0-19.2 6.4-21.333333 17.066667L192 405.333333c-36.266667 0-64 27.733333-64 64s27.733333 64 64 64 64-27.733333 64-64c0-10.666667-2.133333-19.2-6.4-27.733333l91.733333-81.066667c8.533333-8.533333 21.333333-6.4 29.866667 2.133334 2.133333 2.133333 2.133333 4.266667 4.266667 6.4l100.266666 247.466666c-17.066667 10.666667-27.733333 29.866667-27.733333 53.333334 0 36.266667 27.733333 64 64 64s64-27.733333 64-64c0-23.466667-10.666667-42.666667-27.733333-53.333334zM266.666667 149.33333300000004h490.666666c17.066667 0 32-14.933333 32-32s-14.933333-32-32-32h-490.666666c-17.066667 0-32 14.933333-32 32s14.933333 32 32 32z"  horiz-adv-x="1024" />

    
    <glyph glyph-name="get-directions-butto" unicode="&#59082;" d="M925.866667 413.866667l-384 384c-17.066667 17.066667-42.666667 17.066667-59.733334 0l-384-384c-17.066667-17.066667-17.066667-42.666667 0-59.733334l384-384c17.066667-17.066667 42.666667-17.066667 59.733334 0l384 384c17.066667 17.066667 17.066667 42.666667 0 59.733334zM597.333333 277.333333v106.666667h-170.666666v-128h-85.333334v170.666667c0 25.6 17.066667 42.666667 42.666667 42.666666h213.333333v106.666667l149.333334-149.333333-149.333334-149.333334z"  horiz-adv-x="1024" />

    
    <glyph glyph-name="ic_account_circle_" unicode="&#59083;" d="M512 810.666667C276.266667 810.666667 85.333333 619.733333 85.333333 384s190.933333-426.666667 426.666667-426.666667 426.666667 190.933333 426.666667 426.666667S747.733333 810.666667 512 810.666667z m0-128c70.613333 0 128-57.386667 128-128 0-70.826667-57.386667-128-128-128s-128 57.173333-128 128c0 70.613333 57.386667 128 128 128z m0-605.866667c-106.88 0-200.746667 54.613333-256 137.386667 1.066667 84.693333 170.88 131.413333 256 131.413333s254.72-46.72 256-131.413333c-55.253333-82.773333-149.12-137.386667-256-137.386667z"  horiz-adv-x="1024" />

    
    <glyph glyph-name="call" unicode="&#59084;" d="M282.666667 435.413333a642.56 642.56 0 0 1 281.173333-280.96l93.866667 94.08c11.733333 11.733333 28.586667 15.146667 43.306666 10.453334C748.8 243.20000000000005 800.213333 234.66666699999996 853.333333 234.66666699999996c23.68 0 42.666667-18.986667 42.666667-42.666667v-149.333333c0-23.68-18.986667-42.666667-42.666667-42.666667C452.693333 0 128 324.69333300000005 128 725.333333a42.666667 42.666667 0 0 0 42.666667 42.666667h149.333333c23.68 0 42.666667-18.986667 42.666667-42.666667 0-53.12 8.533333-104.533333 24.32-152.32 4.693333-14.72 1.28-31.573333-10.453334-43.306666l-93.866666-94.293334z"  horiz-adv-x="1024" />

    
    <glyph glyph-name="ic_check_box_px1" unicode="&#59085;" d="M810.666667 768H213.333333c-47.146667 0-85.333333-38.186667-85.333333-85.333333v-597.333334c0-47.146667 38.186667-85.333333 85.333333-85.333333h597.333334c47.146667 0 85.333333 38.186667 85.333333 85.333333V682.666667c0 47.146667-38.186667 85.333333-85.333333 85.333333zM426.666667 170.666667L213.333333 384l60.373334 60.373333L426.666667 291.413333l323.626666 323.626667L810.666667 554.666667 426.666667 170.666667z"  horiz-adv-x="1024" />

    
    <glyph glyph-name="checkbox" unicode="&#59086;" d="M810.666667 682.666667v-597.333334H213.333333V682.666667h597.333334m0 85.333333H213.333333c-47.146667 0-85.333333-38.186667-85.333333-85.333333v-597.333334c0-47.146667 38.186667-85.333333 85.333333-85.333333h597.333334c47.146667 0 85.333333 38.186667 85.333333 85.333333V682.666667c0 47.146667-38.186667 85.333333-85.333333 85.333333z"  horiz-adv-x="1024" />

    
    <glyph glyph-name="ic_place_px1" unicode="&#59092;" d="M512 810.666667c-164.906667 0-298.666667-133.76-298.666667-298.666667 0-224 298.666667-554.666667 298.666667-554.666667s298.666667 330.666667 298.666667 554.666667c0 164.906667-133.76 298.666667-298.666667 298.666667z m0-405.333334c-58.88 0-106.666667 47.786667-106.666667 106.666667s47.786667 106.666667 106.666667 106.666667 106.666667-47.786667 106.666667-106.666667-47.786667-106.666667-106.666667-106.666667z"  horiz-adv-x="1024" />

    
    <glyph glyph-name="processing" unicode="&#59088;" d="M729.6 384h-166.4V704c0 27.733333-23.466667 51.2-51.2 51.2S460.8 731.733333 460.8 704v-422.4h268.8c27.733333 0 51.2 23.466667 51.2 51.2 0 27.733333-23.466667 51.2-51.2 51.2zM512 896C228.266667 896 0 667.733333 0 384s228.266667-512 512-512 512 228.266667 512 512S795.733333 896 512 896z m0-972.8C258.133333-76.8 51.2 130.133333 51.2 384 51.2 637.866667 258.133333 844.8 512 844.8S972.8 637.866667 972.8 384c0-253.866667-206.933333-460.8-460.8-460.8z"  horiz-adv-x="1024" />

    
    <glyph glyph-name="success" unicode="&#59089;" d="M512 896C228.266667 896 0 667.733333 0 384s228.266667-512 512-512 512 228.266667 512 512S795.733333 896 512 896z m0-972.8C258.133333-76.8 51.2 130.133333 51.2 384 51.2 637.866667 258.133333 844.8 512 844.8S972.8 637.866667 972.8 384c0-253.866667-206.933333-460.8-460.8-460.8z m213.333333 663.466667L471.466667 296.533333l-153.6 153.6c-19.2 19.2-53.333333 19.2-72.533334 0s-19.2-53.333333 0-72.533333c0 0 2.133333 0 2.133334-2.133333L471.466667 149.333333l326.4 362.666667c19.2 19.2 19.2 53.333333 0 72.533333s-51.2 21.333333-72.533334 2.133334z"  horiz-adv-x="1024" />

    
    <glyph glyph-name="ic_my_location_px1" unicode="&#59093;" d="M512 554.666667c-94.293333 0-170.666667-76.373333-170.666667-170.666667s76.373333-170.666667 170.666667-170.666667 170.666667 76.373333 170.666667 170.666667-76.373333 170.666667-170.666667 170.666667z m381.44-128C873.813333 604.586667 732.586667 745.813333 554.666667 765.44V853.333333h-85.333334v-87.893333C291.413333 745.813333 150.186667 604.586667 130.56 426.666667H42.666667v-85.333334h87.893333c19.626667-177.92 160.853333-319.146667 338.773333-338.773333V-85.333333h85.333334v87.893333c177.92 19.626667 319.146667 160.853333 338.773333 338.773333H981.333333v85.333334h-87.893333zM512 85.333333c-164.906667 0-298.666667 133.76-298.666667 298.666667s133.76 298.666667 298.666667 298.666667 298.666667-133.76 298.666667-298.666667-133.76-298.666667-298.666667-298.666667z"  horiz-adv-x="1024" />

    
    <glyph glyph-name="ic_done_px1" unicode="&#59094;" d="M405.333333 179.20000000000005L157.866667 426.666667c-17.066667 17.066667-42.666667 17.066667-59.733334 0s-17.066667-42.666667 0-59.733334l262.4-262.4c25.6-25.6 66.133333-25.6 89.6 0 0 0 157.866667 162.133333 475.733334 484.266667 17.066667 17.066667 17.066667 44.8 0 59.733333-17.066667 17.066667-44.8 17.066667-59.733334 0L405.333333 179.20000000000005z"  horiz-adv-x="1024" />

    
    <glyph glyph-name="ic_level_star1" unicode="&#59104;" d="M938.666667 490.666667h-298.666667l-128 298.666666-128-298.666666H85.333333l251.733334-204.8-98.133334-307.2L512 170.666667l273.066667-192-98.133334 307.2z"  horiz-adv-x="1024" />

    
    <glyph glyph-name="servicechat" unicode="&#59118;" d="M841.152 559.893333h33.6A64 64 0 0 0 938.666667 495.829333v-339.605333a63.914667 63.914667 0 0 0-63.914667-64.042667H825.386667l-0.106667-113.130666c-0.021333-23.68-14.442667-30.037333-32.192-14.506667l-145.856 127.637333h-107.904a64 64 0 0 0-63.914667 64.042667v27.52h301.717334c35.306667 0 64 28.650667 64 64V559.914667zM396.416 228.43733299999997l-187.2-164.693333c-17.706667-15.573333-32.149333-8.96-32.277333 14.4l-0.853334 150.293333H149.333333c-35.349333 0-64 28.48-64 63.978667V746.666667A63.936 63.936 0 0 0 149.333333 810.666667h579.050667c35.349333 0 64-28.48 64-63.978667v-454.272a63.936 63.936 0 0 0-64-64H396.416z m-116.053333 231.146667c26.944 0 48.789333 22.442667 48.789333 50.133333 0 27.733333-21.845333 50.176-48.768 50.176-26.944 0-48.768-22.464-48.768-50.154666 0-27.712 21.824-50.154667 48.768-50.154667z m170.666666 0c26.944 0 48.789333 22.442667 48.789334 50.133333 0 27.733333-21.845333 50.176-48.768 50.176-26.944 0-48.768-22.464-48.768-50.154666 0-27.712 21.824-50.154667 48.768-50.154667z m170.666667 0c26.944 0 48.789333 22.442667 48.789333 50.133333 0 27.733333-21.845333 50.176-48.768 50.176-26.944 0-48.768-22.464-48.768-50.154666 0-27.712 21.824-50.154667 48.768-50.154667z"  horiz-adv-x="1024" />

    
    <glyph glyph-name="tips" unicode="&#58947;" d="M512-128c-282.331429 0-512 229.741714-512 512 0 282.331429 229.668571 512 512 512s512-229.668571 512-512c0-282.258286-229.741714-512-512-512zM512 822.857143C269.970286 822.857143 73.142857 626.029714 73.142857 384s196.827429-438.857143 438.857143-438.857143 438.857143 196.827429 438.857143 438.857143-196.827429 438.857143-438.857143 438.857143zM460.580571 584.118857V672.841143h77.165715v-88.722286H460.580571z m0-539.574857V499.712h77.165715v-455.168H460.580571z"  horiz-adv-x="1024" />

    
    <glyph glyph-name="thumbUp" unicode="&#59119;" d="M42.666667 0h170.666666V512H42.666667v-512z m938.666666 469.333333c0 47.146667-38.186667 85.333333-85.333333 85.333334H626.56l40.746667 194.986666c0.853333 4.266667 1.493333 8.746667 1.493333 13.44 0 17.706667-7.253333 33.706667-18.773333 45.226667L604.586667 853.333333 323.626667 572.373333C308.266667 556.8 298.666667 535.4666669999999 298.666667 512v-426.666667c0-47.146667 38.186667-85.333333 85.333333-85.333333h384c35.413333 0 65.706667 21.546667 78.506667 52.053333l128.64 300.8A85.333333 85.333333 0 0 1 981.333333 384v81.706667l-0.426666 0.426666L981.333333 469.333333z"  horiz-adv-x="1024" />

    
    <glyph glyph-name="thumbDown" unicode="&#59120;" d="M640 768H256c-35.413333 0-65.706667-21.546667-78.506667-52.053333l-128.64-300.8A85.333333 85.333333 0 0 1 42.666667 384v-81.706667l0.426666-0.426666L42.666667 298.66666699999996c0-47.146667 38.186667-85.333333 85.333333-85.333334h269.44l-40.746667-194.986666c-0.853333-4.266667-1.493333-8.746667-1.493333-13.44 0-17.706667 7.253333-33.706667 18.773333-45.226667L419.413333-85.33333300000004l280.96 280.96C715.733333 211.20000000000005 725.333333 232.53333299999997 725.333333 256V682.666667c0 47.146667-38.186667 85.333333-85.333333 85.333333z m170.666667 0v-512h170.666666V768h-170.666666z"  horiz-adv-x="1024" />

    
    <glyph glyph-name="province" unicode="&#59121;" d="M778.666667 128H853.333333V512H170.666667v-384h74.666666V384c0 36.266667 27.733333 64 64 64s64-27.733333 64-64v-256H448V384c0 36.266667 27.733333 64 64 64s64-27.733333 64-64v-256h74.666667V384c0 36.266667 27.733333 64 64 64s64-27.733333 64-64v-256zM106.666667 85.33333300000004h810.666666c12.8 0 21.333333-8.533333 21.333334-21.333333v-42.666667c0-12.8-8.533333-21.333333-21.333334-21.333333H106.666667c-12.8 0-21.333333 8.533333-21.333334 21.333333v42.666667c0 12.8 10.666667 21.333333 21.333334 21.333333zM537.6 763.733333L925.866667 597.333333c10.666667-4.266667 14.933333-17.066667 10.666666-27.733333-2.133333-10.666667-10.666667-14.933333-19.2-14.933333H106.666667c-12.8 0-21.333333 8.533333-21.333334 21.333333 0 8.533333 4.266667 17.066667 12.8 19.2l388.266667 166.4c17.066667 8.533333 34.133333 8.533333 51.2 2.133333zM512 618.666667c23.466667 0 42.666667 19.2 42.666667 42.666666s-19.2 42.666667-42.666667 42.666667-42.666667-19.2-42.666667-42.666667 19.2-42.666667 42.666667-42.666666z"  horiz-adv-x="1024" />

    
    <glyph glyph-name="washing_machine" unicode="&#59141;" d="M842.666667 654.933333V716.8c0 32-25.6 57.6-57.6 57.6H238.933333c-32 0-57.6-25.6-57.6-57.6v-61.866667h661.333334z m0-59.733333h-661.333334v-544c0-32 25.6-57.6 57.6-57.6h546.133334c32 0 57.6 25.6 57.6 57.6V595.2z m-507.733334-341.333333c14.933333-76.8 89.6-140.8 177.066667-140.8 87.466667 0 164.266667 64 177.066667 140.8-25.6-14.933333-55.466667-21.333333-89.6-21.333334-38.4 0-66.133333 10.666667-108.8 34.133334 4.266667-2.133333-12.8 6.4-14.933334 8.533333-6.4 2.133333-10.666667 4.266667-14.933333 6.4-14.933333 6.4-27.733333 10.666667-38.4 10.666667-29.866667 2.133333-57.6-10.666667-87.466667-38.4z m2.133334 76.8c27.733333 14.933333 57.6 23.466667 87.466666 23.466666 21.333333 0 40.533333-6.4 64-17.066666 4.266667-2.133333 10.666667-4.266667 17.066667-8.533334 4.266667-2.133333 19.2-10.666667 14.933333-8.533333 36.266667-19.2 55.466667-25.6 78.933334-25.6 38.4 0 66.133333 10.666667 87.466666 34.133333-19.2 85.333333-89.6 147.2-174.933333 147.2-85.333333-2.133333-155.733333-59.733333-174.933333-145.066666zM238.933333 836.266667h546.133334c66.133333 0 119.466667-53.333333 119.466666-119.466667v-665.6c0-66.133333-53.333333-119.466667-119.466666-119.466667H238.933333c-66.133333 0-119.466667 53.333333-119.466666 119.466667V716.8c0 66.133333 53.333333 119.466667 119.466666 119.466667zM512 53.33333300000004c-132.266667 0-241.066667 108.8-241.066667 230.4 0 145.066667 108.8 251.733333 241.066667 251.733334S753.066667 426.666667 753.066667 281.6c0-121.6-108.8-228.266667-241.066667-228.266667z m181.333333 691.2h29.866667c17.066667 0 29.866667-12.8 29.866667-29.866666 0-17.066667-12.8-29.866667-29.866667-29.866667h-29.866667c-17.066667 0-29.866667 12.8-29.866666 29.866667 0 17.066667 12.8 29.866667 29.866666 29.866666z"  horiz-adv-x="1024" />

    
    <glyph glyph-name="search_large" unicode="&#59143;" d="M729.6 243.20000000000005l192-192c17.066667-17.066667 17.066667-44.8 0-61.866667l-14.933333-14.933333c-17.066667-17.066667-44.8-17.066667-61.866667 0l-192 192c-59.733333-42.666667-132.266667-70.4-211.2-70.4C245.333333 98.133333 85.333333 256 85.333333 454.4S245.333333 810.666667 441.6 810.666667s356.266667-160 356.266667-356.266667c0-78.933333-25.6-153.6-68.266667-211.2z m-288-59.733333c149.333333 0 268.8 121.6 268.8 268.8S590.933333 723.2 441.6 723.2 172.8 603.733333 172.8 454.4s119.466667-270.933333 268.8-270.933333z"  horiz-adv-x="1024" />

    
    <glyph glyph-name="map_large" unicode="&#59144;" d="M500.139 559.616a160.341 160.341 0 0 0-1.558 22.315c0 90.986 76.416 164.736 170.688 164.736 94.23 0 170.667-73.75 170.667-164.736 0-9.451-0.853-18.71-2.432-27.734l58.347-16.448c16.064-5.226 27.413-13.333 34.09-24.32 6.656-10.986 9.344-26.197 8.086-45.653v-406.528c-2.795-14.55-9.899-24.597-21.334-30.101-11.434-5.526-27.733-5.526-48.853 0l-176.555 73.557a248.533 248.533 0 0 1-29.056 3.435c-8.384 0.426-18.474-0.726-30.272-3.414l-205.226-73.6c-15.04-4.33-27.84-6.25-38.422-5.76-10.581 0.512-25.152 3.414-43.712 8.726l-192.426 52.714c-14.507 5.632-25.664 12.331-33.408 20.075-7.766 7.765-11.008 20.864-9.75 39.317V548.693c1.771 16.747 8.214 27.819 19.371 33.238 11.136 5.418 25.664 6.698 43.563 3.882l172.65-43.84c21.184-4.629 36.736-6.954 46.678-6.954 9.941 0 24.554 2.325 43.882 6.954l64.982 17.664z m314.73-63.573a168.619 168.619 0 0 0-14.698-19.798l-104.576-144S688.49 320 669.269 320c-18.56 0-26.368 12.245-26.368 12.245L538.453 476.16a164.907 164.907 0 0 0-17.749 24.619l-32.256-8.384c-14.72-2.774-24.917-7.211-30.57-13.291-5.675-6.101-8.491-16.704-8.491-31.83v-305.898c-1.835-18.219 0.981-28.501 8.49-30.87 7.488-2.346 18.667-0.405 33.494 5.825l124.757 47.466c7.488 2.048 13.525 5.184 18.133 9.387 4.587 4.224 7.04 9.899 7.36 17.067V234.24c3.136 20.416 13.739 30.272 31.808 29.568 18.07-0.704 28.288-10.539 30.656-29.568v-43.968c1.259-7.53 3.84-13.205 7.808-17.067a70.4 70.4 0 0 1 11.734-9.386l117.12-58.518c13.205-4.33 22.314-4.33 27.306 0 4.992 4.352 7.51 13.995 7.51 28.928V447.296c0 14.507-2.518 24-7.51 28.437-4.992 4.459-14.101 8.896-27.306 13.355l-25.878 6.976z m-643.712-306.07c-1.792-16.213-0.128-27.84 5.014-34.922 5.12-7.083 10.197-10.923 15.21-11.52l151.723-43.286c22.613-5.162 35.456-4.053 38.613 3.307 3.136 7.381 4.31 17.43 3.542 30.165v294.4c0 11.051-1.174 19.542-3.563 25.536-2.347 5.974-8.96 10.24-19.776 12.8L200.939 513.9200000000001c-13.184 2.304-21.44 2.304-24.768 0-3.35-2.283-5.014-9.984-5.014-23.083v-300.864zM652.78 413.312s4.906-7.957 16.49-7.957c12.011 0 16.448 7.957 16.448 7.957l65.366 93.61c3.84 4.63 7.317 9.622 10.389 14.87l0.043 0.085c9.152 15.787 14.4 34.134 14.4 53.718 0 59.157-47.766 107.093-106.667 107.093s-106.667-47.936-106.667-107.093c0-26.155 9.387-50.134 24.918-68.715l65.28-93.568z m16.49 205.355a42.667 42.667 0 1 0-0.042-85.355 42.667 42.667 0 0 0 0.042 85.355z"  horiz-adv-x="1025" />

    
    <glyph glyph-name="bar" unicode="&#59146;" d="M714.666667 490.666667l-200.533334-200.533334c-8.533333-10.666667-21.333333-17.066667-32-21.333333v-277.333333h119.466667c17.066667 0 29.866667-12.8 29.866667-29.866667 0-17.066667-12.8-29.866667-29.866667-29.866667H300.8c-17.066667 0-29.866667 12.8-29.866667 29.866667s12.8 29.866667 29.866667 29.866667h119.466667v277.333333c-12.8 4.266667-23.466667 10.666667-32 21.333333L147.2 533.333333c-17.066667 17.066667-25.6 38.4-25.6 64 0 49.066667 40.533333 89.6 89.6 89.6h484.266667c23.466667 0 46.933333-8.533333 61.866666-25.6 32-32 34.133333-83.2 6.4-119.466666 46.933333-6.4 93.866667 17.066667 119.466667 59.733333 34.133333 57.6 12.8 132.266667-44.8 164.266667s-132.266667 12.8-164.266667-44.8c-8.533333-14.933333-27.733333-19.2-40.533333-10.666667-14.933333 8.533333-19.2 27.733333-10.666667 40.533333 49.066667 87.466667 160 115.2 247.466667 66.133334s115.2-160 66.133333-247.466667c-46.933333-76.8-138.666667-108.8-221.866666-78.933333z m-366.933334-76.8l83.2-83.2c10.666667-10.666667 29.866667-10.666667 42.666667 0l83.2 83.2h-209.066667z m-59.733333 59.733333h328.533333l98.133334 98.133333c10.666667 10.666667 10.666667 29.866667 0 42.666667-6.4 6.4-12.8 8.533333-21.333334 8.533333H211.2c-17.066667 0-29.866667-12.8-29.866667-29.866666 0-8.533333 2.133333-14.933333 8.533334-21.333334l98.133333-98.133333z"  horiz-adv-x="1024" />

    
    <glyph glyph-name="hours_service" unicode="&#59147;" d="M300.8 384v29.866667c0 85.333333 64 151.466667 151.466667 151.466666h119.466666c85.333333 0 151.466667-66.133333 151.466667-151.466666V384h196.266667c40.533333 0 74.666667-34.133333 74.666666-74.666667V-21.33333300000004c0-40.533333-34.133333-74.666667-74.666666-74.666667H104.533333c-40.533333 0-74.666667 34.133333-74.666666 74.666667V309.33333300000004C29.866667 349.866667 64 384 104.533333 384h196.266667z m362.666667 0v29.866667c0 51.2-38.4 89.6-89.6 89.6h-119.466667c-53.333333 0-89.6-38.4-89.6-89.6V384h298.666667zM512 595.2c-66.133333 0-119.466667 53.333333-119.466667 119.466667s53.333333 119.466667 119.466667 119.466666 119.466667-53.333333 119.466667-119.466666-53.333333-119.466667-119.466667-119.466667z m0 59.733333c34.133333 0 59.733333 27.733333 59.733333 59.733334S546.133333 776.533333 512 776.533333s-59.733333-27.733333-59.733333-59.733333 25.6-61.866667 59.733333-61.866667zM104.533333 324.266667c-8.533333 0-14.933333-6.4-14.933333-14.933334V-21.33333300000004c0-8.533333 6.4-14.933333 14.933333-14.933334H917.333333c8.533333 0 14.933333 6.4 14.933334 14.933334V309.33333300000004c0 8.533333-6.4 14.933333-14.933334 14.933334H104.533333z m166.4-147.2c0 34.133333 29.866667 57.6 72.533334 57.6 40.533333 0 70.4-21.333333 70.4-51.2 0-21.333333-17.066667-38.4-38.4-57.6L328.533333 85.33333300000004h87.466667v-29.866666h-142.933333v25.6l74.666666 64c19.2 17.066667 25.6 27.733333 25.6 38.4 0 12.8-12.8 23.466667-32 23.466666s-32-12.8-32-27.733333l-38.4-2.133333z m253.866667-123.733334v29.866667h-91.733333v42.666667l81.066666 104.533333h57.6v-125.866667h23.466667v-21.333333h-23.466667v-29.866667h-46.933333z m-57.6 64h70.4v83.2c-34.133333-36.266667-53.333333-57.6-70.4-83.2z m149.333333-64v177.066667h38.4v-68.266667c8.533333 17.066667 23.466667 25.6 44.8 25.6 32 0 51.2-19.2 51.2-49.066666v-83.2h-40.533333v76.8c0 17.066667-8.533333 27.733333-27.733333 27.733333s-29.866667-12.8-29.866667-29.866667v-74.666666h-36.266667z"  horiz-adv-x="1024" />

    
    <glyph glyph-name="airport_pick_up_serv" unicode="&#59148;" d="M812.8 23.46666700000003c17.066667 0 29.866667-12.8 29.866667-29.866667v-29.866667c0-17.066667-12.8-29.866667-29.866667-29.866666-17.066667 0-29.866667 12.8-29.866667 29.866666v29.866667c0 14.933333 12.8 29.866667 29.866667 29.866667z m-360.533333 0c17.066667 0 29.866667-12.8 29.866666-29.866667v-29.866667c0-17.066667-12.8-29.866667-29.866666-29.866666-17.066667 0-29.866667 12.8-29.866667 29.866666v29.866667c0 14.933333 12.8 29.866667 29.866667 29.866667z m456.533333 230.4c17.066667 2.133333 32 6.4 46.933333 8.533333 17.066667 4.266667 32-6.4 36.266667-23.466667 4.266667-17.066667-6.4-32-23.466667-36.266666-12.8-2.133333-23.466667-4.266667-38.4-8.533334V81.06666700000005c0-49.066667-40.533333-89.6-89.6-89.6H422.4c-49.066667 0-89.6 40.533333-89.6 89.6v104.533333 8.533333c-12.8 2.133333-25.6 4.266667-38.4 8.533334-17.066667 4.266667-25.6 19.2-23.466667 36.266666 4.266667 17.066667 19.2 25.6 36.266667 23.466667 14.933333-4.266667 29.866667-6.4 46.933333-8.533333l83.2 145.066666c17.066667 27.733333 46.933333 44.8 78.933334 44.8H746.666667c32 0 61.866667-17.066667 78.933333-44.8l83.2-145.066666z m-64-8.533334l-70.4 123.733334c-6.4 8.533333-14.933333 14.933333-25.6 14.933333H516.266667c-10.666667 0-21.333333-6.4-25.6-14.933333l-70.4-123.733334c64-6.4 136.533333-10.666667 213.333333-10.666666 74.666667-2.133333 147.2 2.133333 211.2 10.666666z m27.733333-57.6c-70.4-8.533333-153.6-14.933333-241.066666-14.933333-87.466667 0-170.666667 4.266667-241.066667 14.933333v-104.533333c0-17.066667 12.8-29.866667 29.866667-29.866667h422.4c17.066667 0 29.866667 12.8 29.866666 29.866667v104.533333zM273.066667 640l-49.066667 29.866667C183.466667 693.333333 172.8 744.533333 194.133333 780.8c8.533333 12.8 19.2 23.466667 34.133334 29.866667l8.533333 4.266666c29.866667 14.933333 66.133333 17.066667 98.133333 4.266667l121.6-49.066667L552.533333 810.666667c44.8 17.066667 96 19.2 140.8 4.266666 42.666667-14.933333 66.133333-61.866667 53.333334-104.533333-6.4-19.2-21.333333-36.266667-40.533334-46.933333L277.333333 433.066667c-34.133333-19.2-74.666667-19.2-110.933333-2.133334L93.866667 469.333333c-38.4 19.2-55.466667 66.133333-36.266667 106.666667 8.533333 14.933333 19.2 27.733333 36.266667 36.266667l6.4 4.266666c34.133333 17.066667 74.666667 17.066667 108.8 0l10.666666-6.4 53.333334 29.866667z m405.333333 76.8c4.266667 2.133333 8.533333 6.4 10.666667 12.8 4.266667 12.8-2.133333 25.6-14.933334 29.866667-29.866667 10.666667-66.133333 8.533333-98.133333-4.266667l-96-38.4c-14.933333-6.4-29.866667-6.4-44.8 0l-121.6 49.066667c-14.933333 6.4-34.133333 6.4-49.066667-2.133334l-8.533333-4.266666c-4.266667-2.133333-6.4-4.266667-8.533333-8.533334-6.4-10.666667-2.133333-23.466667 6.4-27.733333l51.2-32c8.533333-4.266667 14.933333-12.8 19.2-19.2 17.066667-27.733333 8.533333-64-19.2-81.066667l-55.466667-34.133333c-17.066667-10.666667-38.4-10.666667-57.6-2.133333l-10.666667 6.4c-17.066667 8.533333-36.266667 8.533333-53.333333 0l-6.4-4.266667c-4.266667-2.133333-6.4-4.266667-8.533333-8.533333-4.266667-8.533333 0-21.333333 8.533333-25.6l72.533333-36.266667c17.066667-8.533333 38.4-8.533333 55.466667 0L678.4 716.8zM452.266667 83.20000000000005c-17.066667 0-29.866667 12.8-29.866667 29.866667 0 17.066667 12.8 29.866667 29.866667 29.866666 17.066667 0 29.866667-12.8 29.866666-29.866666 0-17.066667-12.8-29.866667-29.866666-29.866667z m360.533333 0c-17.066667 0-29.866667 12.8-29.866667 29.866667 0 17.066667 12.8 29.866667 29.866667 29.866666 17.066667 0 29.866667-12.8 29.866667-29.866666 0-17.066667-12.8-29.866667-29.866667-29.866667z"  horiz-adv-x="1024" />

    
    <glyph glyph-name="bicycle_rental" unicode="&#59149;" d="M642.133333 366.93333299999995l-232.533333 134.4-59.733333-102.4c42.666667-36.266667 70.4-89.6 70.4-149.333333 0-108.8-87.466667-196.266667-196.266667-196.266667s-196.266667 87.466667-196.266667 196.266667 87.466667 196.266667 196.266667 196.266667c25.6 0 51.2-4.266667 74.666667-14.933334l166.4 290.133334c8.533333 12.8 19.2 25.6 34.133333 25.6h89.6c17.066667 0 29.866667-12.8 29.866667-29.866667 0-17.066667-12.8-29.866667-29.866667-29.866667h-74.666667L441.6 554.666667 682.666667 413.866667l34.133333 59.733333H704c-17.066667 0-29.866667 12.8-29.866667 29.866667S686.933333 533.333333 704 533.333333h119.466667c17.066667 0 29.866667-12.8 29.866666-29.866666s-12.8-29.866667-29.866666-29.866667h-36.266667l-19.2-32c8.533333 2.133333 19.2 2.133333 29.866667 2.133333 108.8 0 196.266667-87.466667 196.266666-196.266666s-87.466667-196.266667-196.266666-196.266667-196.266667 87.466667-196.266667 196.266667c0 44.8 14.933333 87.466667 40.533333 119.466666z m-373.333333 10.666667c-12.8 4.266667-27.733333 6.4-42.666667 6.4-74.666667 0-136.533333-59.733333-136.533333-136.533333s59.733333-136.533333 136.533333-136.533334S362.666667 170.66666699999996 362.666667 247.46666700000003c0 38.4-14.933333 72.533333-40.533334 96l-42.666666-72.533334c-8.533333-14.933333-27.733333-19.2-40.533334-10.666666-14.933333 8.533333-19.2 27.733333-10.666666 40.533333l40.533333 76.8z m529.066667-264.533333c74.666667 0 136.533333 59.733333 136.533333 136.533333S872.533333 384 797.866667 384 661.333333 324.266667 661.333333 247.46666700000003s61.866667-134.4 136.533334-134.4z"  horiz-adv-x="1024" />

    
    <glyph glyph-name="Airport" unicode="&#59150;" d="M689.344 626.56H338.56V691.392h350.848V626.56zM322.56 141.44000000000005a48.192 48.192 0 0 0-47.872 48.448c0 26.88 21.44 48.576 47.872 48.576s47.808-21.76 47.808-48.576a48.192 48.192 0 0 0-47.808-48.512z m382.72 0a48.192 48.192 0 0 0-47.808 48.448c0 26.88 21.44 48.512 47.872 48.512s47.808-21.76 47.808-48.512a48.192 48.192 0 0 0-47.808-48.512z m143.616 161.664H179.008v-161.728c0-35.712 28.544-64.64 63.808-64.64h542.272c35.2 0 63.808 28.928 63.808 64.64V303.10400000000004z m0 388.224c0 35.712-28.608 64.704-63.808 64.704H242.816c-35.2 0-63.808-28.992-63.808-64.704v-323.52h669.888V691.328z m-63.808-679.36h-1.664a80 80 0 0 0-78.08-64.64 80.128 80.128 0 0 0-78.144 64.64H400.64a80 80 0 0 0-78.08-64.64 80.128 80.128 0 0 0-78.208 64.64h-1.536c-70.464 0-127.616 57.984-127.616 129.408V691.328c0 71.424 57.152 129.408 127.616 129.408h542.272c70.4 0 127.552-57.984 127.552-129.408v-549.952c0-71.488-57.088-129.344-127.552-129.344z"  horiz-adv-x="1024" />

    
    <glyph glyph-name="deep_diving" unicode="&#59151;" d="M541.866667 354.133333v213.333334c0 66.133333 53.333333 119.466667 119.466666 119.466666h2.133334V776.533333h-29.866667c-17.066667 0-29.866667 12.8-29.866667 29.866667s12.8 29.866667 29.866667 29.866667h119.466667c17.066667 0 29.866667-12.8 29.866666-29.866667s-12.8-29.866667-29.866666-29.866667h-29.866667v-89.6h2.133333c66.133333 0 119.466667-53.333333 119.466667-119.466666v-213.333334H874.666667c17.066667 0 29.866667-12.8 29.866666-29.866666 0-17.066667-12.8-29.866667-29.866666-29.866667h-29.866667v-243.2c0-66.133333-53.333333-119.466667-119.466667-119.466667h-64c-66.133333 0-119.466667 53.333333-119.466666 119.466667V294.4h-59.733334v-243.2c0-66.133333-53.333333-119.466667-119.466666-119.466667h-64c-66.133333 0-119.466667 53.333333-119.466667 119.466667V294.4H151.466667c-17.066667 0-29.866667 12.8-29.866667 29.866667 0 17.066667 12.8 29.866667 29.866667 29.866666h29.866666v213.333334c0 66.133333 53.333333 119.466667 119.466667 119.466666h2.133333V776.533333h-29.866666c-17.066667 0-29.866667 12.8-29.866667 29.866667s12.8 29.866667 29.866667 29.866667h119.466666c17.066667 0 29.866667-12.8 29.866667-29.866667s-12.8-29.866667-29.866667-29.866667H362.666667v-89.6c66.133333 0 119.466667-53.333333 119.466666-119.466666v-213.333334h59.733334z m-300.8 211.2v-514.133333c0-32 25.6-57.6 57.6-57.6h64c32 0 57.6 25.6 57.6 57.6V565.333333c0 32-25.6 57.6-57.6 57.6h-64c-32 2.133333-57.6-23.466667-57.6-57.6zM661.333333 625.066667c-32 0-57.6-25.6-57.6-57.6v-514.133334c0-32 25.6-57.6 57.6-57.6h64c32 0 57.6 25.6 57.6 57.6v512c0 32-25.6 57.6-57.6 57.6h-64z"  horiz-adv-x="1024" />

    
    <glyph glyph-name="coffee" unicode="&#59152;" d="M812.8 565.333333h78.933333c38.4 0 70.4-32 70.4-70.4v-87.466666c0-87.466667-70.4-157.866667-157.866666-157.866667h-6.4c-38.4-130.133333-160-226.133333-302.933334-226.133333h-119.466666c-174.933333 0-315.733333 140.8-315.733334 315.733333V554.666667c0 55.466667 44.8 102.4 102.4 102.4h550.4c51.2-2.133333 93.866667-40.533333 100.266667-91.733334zM241.066667 836.266667c17.066667 0 29.866667-12.8 29.866666-29.866667V746.666667c0-17.066667-12.8-29.866667-29.866666-29.866667-17.066667 0-29.866667 12.8-29.866667 29.866667V806.4c0 14.933333 12.8 29.866667 29.866667 29.866667z m181.333333 0c17.066667 0 29.866667-12.8 29.866667-29.866667V746.666667c0-17.066667-12.8-29.866667-29.866667-29.866667s-29.866667 12.8-29.866667 29.866667V806.4c0 14.933333 12.8 29.866667 29.866667 29.866667z m179.2 0c17.066667 0 29.866667-12.8 29.866667-29.866667V746.666667c0-17.066667-12.8-29.866667-29.866667-29.866667s-29.866667 12.8-29.866667 29.866667V806.4c0 14.933333 14.933333 29.866667 29.866667 29.866667zM162.133333 595.2c-23.466667 0-40.533333-19.2-40.533333-40.533333v-215.466667c0-140.8 115.2-256 256-256h119.466667c140.8 0 256 115.2 256 256V554.666667c0 23.466667-19.2 40.533333-40.533334 40.533333H162.133333z m742.4-187.733333v87.466666c0 6.4-4.266667 10.666667-10.666666 10.666667h-78.933334v-196.266667c49.066667 4.266667 89.6 44.8 89.6 98.133334z"  horiz-adv-x="1024" />

    
    <glyph glyph-name="gym" unicode="&#59153;" d="M330.666667 264.53333299999997v-119.466666c0-49.066667-40.533333-89.6-89.6-89.6H211.2c-49.066667 0-89.6 40.533333-89.6 89.6v59.733333H89.6c-49.066667 0-89.6 40.533333-89.6 89.6v119.466667c0 49.066667 40.533333 89.6 89.6 89.6h29.866667v59.733333c0 49.066667 40.533333 89.6 89.6 89.6h29.866666c49.066667 0 89.6-40.533333 89.6-89.6v-119.466667h360.533334v119.466667c0 49.066667 40.533333 89.6 89.6 89.6h29.866666c49.066667 0 89.6-40.533333 89.6-89.6v-59.733333h29.866667c49.066667 0 89.6-40.533333 89.6-89.6v-119.466667c0-49.066667-40.533333-89.6-89.6-89.6h-29.866667v-59.733333c0-49.066667-40.533333-89.6-89.6-89.6h-29.866666c-49.066667 0-89.6 40.533333-89.6 89.6v119.466666H330.666667z m603.733333 179.2h-29.866667v-181.333333h29.866667c17.066667 0 29.866667 12.8 29.866667 29.866667v119.466666c0 19.2-14.933333 32-29.866667 32zM693.333333 384h-362.666666v-59.733333h360.533333V384zM89.6 443.733333c-17.066667 0-29.866667-12.8-29.866667-29.866666v-119.466667c0-17.066667 12.8-29.866667 29.866667-29.866667h29.866667v181.333334H89.6z m693.333333 151.466667c-17.066667 0-29.866667-12.8-29.866666-29.866667v-422.4c0-17.066667 12.8-29.866667 29.866666-29.866666h29.866667c17.066667 0 29.866667 12.8 29.866667 29.866666V565.333333c0 17.066667-12.8 29.866667-29.866667 29.866667h-29.866667z m-571.733333 0c-17.066667 0-29.866667-12.8-29.866667-29.866667v-422.4c0-17.066667 12.8-29.866667 29.866667-29.866666h29.866667c17.066667 0 29.866667 12.8 29.866666 29.866666V565.333333c0 17.066667-12.8 29.866667-29.866666 29.866667H211.2z"  horiz-adv-x="1092" />

    
    <glyph glyph-name="ironing" unicode="&#59154;" d="M738.133333 473.6L635.733333 714.666667h-160c-17.066667 0-29.866667 12.8-29.866666 29.866666s12.8 29.866667 29.866666 29.866667h179.2c12.8 0 23.466667-6.4 27.733334-19.2L910.933333 213.33333300000004c2.133333-2.133333 2.133333-6.4 2.133334-8.533333l12.8-27.733333c19.2-46.933333-2.133333-98.133333-49.066667-117.333334-10.666667-4.266667-23.466667-6.4-34.133333-6.4h-661.333334c-49.066667 0-89.6 40.533333-89.6 89.6 0 12.8 2.133333 23.466667 6.4 34.133334l100.266667 241.066666c14.933333 34.133333 46.933333 55.466667 83.2 55.466667h456.533333z m-456.533333-59.733333c-12.8 0-23.466667-6.4-27.733333-19.2L153.6 153.60000000000002c-2.133333-4.266667-2.133333-8.533333-2.133333-10.666667 0-17.066667 12.8-29.866667 29.866666-29.866666h663.466667c4.266667 0 8.533333 0 10.666667 2.133333 14.933333 6.4 23.466667 23.466667 17.066666 38.4l-100.266666 241.066667c-4.266667 10.666667-14.933333 19.2-27.733334 19.2H281.6zM119.466667 23.46666700000003h782.933333c17.066667 0 29.866667-12.8 29.866667-29.866667 0-17.066667-12.8-29.866667-29.866667-29.866667H119.466667c-17.066667 0-29.866667 12.8-29.866667 29.866667 0 14.933333 14.933333 29.866667 29.866667 29.866667z m362.666666 541.866666h59.733334c17.066667 0 29.866667-12.8 29.866666-29.866666 0-17.066667-12.8-29.866667-29.866666-29.866667h-59.733334c-17.066667 0-29.866667 12.8-29.866666 29.866667 0 14.933333 12.8 29.866667 29.866666 29.866666z"  horiz-adv-x="1024" />

    
    <glyph glyph-name="gambling_house" unicode="&#59156;" d="M236.8 836.266667h550.4c64 0 117.333333-51.2 117.333333-117.333334v-669.866666c0-64-51.2-117.333333-117.333333-117.333334H236.8c-64 0-117.333333 51.2-117.333333 117.333334V718.933333c0 64 53.333333 117.333333 117.333333 117.333334z m0-59.733334c-32 0-55.466667-25.6-55.466667-55.466666v-669.866667c0-32 25.6-55.466667 55.466667-55.466667h550.4c32 0 55.466667 25.6 55.466667 55.466667V718.933333c0 32-25.6 55.466667-55.466667 55.466667H236.8zM512 324.266667l87.466667-145.066667c6.4-10.666667 2.133333-25.6-8.533334-32-4.266667-2.133333-8.533333-4.266667-12.8-4.266667h-132.266666c-12.8 0-23.466667 10.666667-23.466667 23.466667 0 4.266667 2.133333 8.533333 4.266667 12.8l85.333333 145.066667z m-74.666667-91.733334c-74.666667 0-136.533333 59.733333-136.533333 136.533334 0 61.866667 64 140.8 192 247.466666l19.2 14.933334 19.2-14.933334c128-104.533333 194.133333-185.6 192-247.466666 0-74.666667-59.733333-136.533333-136.533333-136.533334-27.733333 0-53.333333 8.533333-74.666667 23.466667-21.333333-14.933333-46.933333-23.466667-74.666667-23.466667z m-76.8 136.533334c0-40.533333 34.133333-74.666667 74.666667-74.666667 21.333333 0 40.533333 8.533333 53.333333 23.466667l21.333334 21.333333 21.333333-21.333333c14.933333-14.933333 34.133333-23.466667 53.333333-23.466667 40.533333 0 74.666667 34.133333 74.666667 76.8 0 36.266667-49.066667 100.266667-149.333333 183.466667-98.133333-87.466667-147.2-151.466667-149.333334-185.6z"  horiz-adv-x="1024" />

    
    <glyph glyph-name="ktv" unicode="&#59157;" d="M202.666667 70.39999999999998l10.666666-10.666667c19.2-19.2 46.933333-23.466667 70.4-10.666666l177.066667 100.266666c-40.533333 17.066667-81.066667 40.533333-113.066667 74.666667-34.133333 34.133333-57.6 72.533333-74.666666 113.066667L170.666667 160c-12.8-23.466667-8.533333-51.2 10.666666-70.4l12.8-12.8c2.133333 0 2.133333-2.133333 4.266667-4.266667s2.133333 0 4.266667-2.133333z m-25.6-59.733333l-21.333334-21.333334c-12.8-12.8-29.866667-12.8-42.666666 0-12.8 12.8-12.8 29.866667 0 42.666667l21.333333 21.333333c-32 38.4-40.533333 91.733333-14.933333 136.533334l134.4 232.533333c-10.666667 96 21.333333 196.266667 96 270.933333 130.133333 130.133333 339.2 130.133333 469.333333 0s130.133333-339.2 0-469.333333c-74.666667-74.666667-172.8-104.533333-270.933333-96l-234.666667-134.4c-44.8-21.333333-98.133333-14.933333-136.533333 17.066667z m194.133333 616.533333c-85.333333-106.666667-78.933333-262.4 19.2-360.533333s253.866667-104.533333 360.533333-19.2l-61.866666 61.866666c-12.8 12.8-12.8 29.866667 0 42.666667 12.8 12.8 29.866667 12.8 42.666666 0l61.866667-61.866667c85.333333 106.666667 78.933333 262.4-19.2 360.533334s-253.866667 104.533333-360.533333 19.2l232.533333-232.533334c12.8-12.8 12.8-29.866667 0-42.666666s-29.866667-12.8-42.666667 0L371.2 627.2z"  horiz-adv-x="1024" />

    
    </font>
</defs>
</svg>
